M48
;DRILL file {Pcbnew (2013-07-07 BZR 4022)-stable} date 08/12/2014 20:48:52
;FORMAT={-:-/ absolute / inch / decimal}
FMAT,2
INCH,TZ
T1C0.025
T2C0.031
T3C0.032
T4C0.040
%
G90
G05
M72
T1
X8.098Y-5.524
X8.1329Y-5.1191
X8.1447Y-4.2352
X8.187Y-4.9685
X8.2531Y-5.526
X8.3661Y-4.0059
X8.4386Y-5.5665
X8.4512Y-5.4567
X8.5059Y-5.6366
X8.5315Y-5.0394
X8.5935Y-4.6841
X8.6654Y-4.128
X8.6654Y-4.9941
X8.6732Y-4.8307
X8.7116Y-5.3868
X8.7175Y-5.5335
X8.7177Y-5.6016
X8.7195Y-5.251
X8.7343Y-4.7274
X8.7642Y-5.4559
X8.7661Y-5.189
X8.8425Y-5.4931
X8.8435Y-5.3081
X8.8839Y-4.7913
X8.8988Y-5.2051
X8.9075Y-4.4094
X8.9331Y-4.5571
X8.9567Y-4.0059
X8.9567Y-4.124
X8.9872Y-4.8593
X9.0551Y-4.4094
X9.0738Y-4.6427
X9.1043Y-4.124
X9.1693Y-4.6496
X9.1713Y-4.5433
X9.1732Y-4.5965
X9.1831Y-4.4094
X9.2307Y-5.5614
X9.2461Y-4.7776
X9.2606Y-5.0157
X9.2654Y-5.2201
X9.3012Y-4.0157
X9.3012Y-4.124
X9.3075Y-4.7748
X9.3238Y-4.5276
X9.4Y-4.36
X9.4203Y-4.5807
X9.4301Y-4.5335
X9.4551Y-5.0846
X9.4724Y-4.5846
X9.4744Y-4.4941
X9.5Y-4.798
X9.502Y-5.0846
X9.51Y-4.19
X9.5207Y-4.5886
X9.57Y-5.05
X9.5728Y-4.5906
X9.6161Y-3.9862
X9.6526Y-4.7077
X9.6799Y-5.187
X9.685Y-4.5717
X9.7008Y-4.7096
X9.7106Y-4.9557
X9.7114Y-5.0016
X9.7264Y-5.0724
X9.7362Y-4.8583
X9.7579Y-5.5965
X9.7628Y-4.94
X9.7707Y-5.4961
X9.7805Y-4.6516
X9.8169Y-4.4439
X9.8199Y-5.503
X9.8317Y-5.1811
X9.8632Y-5.25
X9.8665Y-4.9531
X9.8681Y-4.8827
X9.8898Y-4.6949
X9.9024Y-5.1094
X9.9085Y-4.5443
X9.9618Y-4.8567
X10.0071Y-4.8146
X10.0522Y-4.8996
X10.0866Y-5.19
X10.1366Y-5.5272
X10.1417Y-5.3632
X10.3563Y-4.8583
X10.3583Y-4.9685
X10.4909Y-4.95
X10.5394Y-4.7283
X10.5404Y-4.8376
T2
X9.2504Y-5.3701
X9.4425Y-5.3701
X10.4921Y-5.3248
X10.4921Y-5.5807
X10.6693Y-5.3248
X10.6693Y-5.5807
T3
X9.9894Y-4.0846
X10.0894Y-4.0846
X10.2748Y-4.0846
X10.3748Y-4.0846
T4
X7.8701Y-4.3988
X7.8701Y-4.4988
X7.8701Y-4.9681
X7.8701Y-5.0681
X7.8701Y-5.1681
X7.8701Y-5.2681
X7.8701Y-5.5236
X8.1646Y-3.937
X8.1646Y-5.7087
X8.2646Y-3.937
X8.2646Y-5.7087
X8.3646Y-3.937
X8.3646Y-5.7087
X8.4646Y-3.937
X8.4646Y-5.7087
X8.5646Y-3.937
X8.5646Y-5.7087
X8.6646Y-3.937
X8.6646Y-5.7087
X8.7646Y-3.937
X8.7646Y-5.7087
X8.8646Y-3.937
X8.8646Y-5.7087
X9.7894Y-5.7087
X9.8894Y-5.7087
X9.9894Y-5.7087
X10.0894Y-5.7087
X10.1705Y-4.6606
X10.1705Y-4.7606
X10.1705Y-4.8606
X10.1705Y-4.9567
X10.1705Y-5.0606
X10.1705Y-5.1606
X10.1705Y-5.2606
X10.1894Y-5.7087
X10.2705Y-4.6606
X10.2705Y-4.7606
X10.2705Y-4.8606
X10.2705Y-4.9606
X10.2705Y-5.2606
X10.2717Y-5.0606
X10.2736Y-5.1606
X10.2894Y-5.7087
X10.6299Y-3.9657
X10.6299Y-4.0657
X10.6299Y-4.261
X10.6299Y-4.361
X10.6299Y-4.5079
X10.6299Y-4.663
X10.6299Y-4.763
X10.6299Y-4.863
X10.6299Y-4.963
T0
M30
