G04 (created by PCBNEW (2013-07-07 BZR 4022)-stable) date 08/12/2014 20:48:50*
%MOIN*%
G04 Gerber Fmt 3.4, Leading zero omitted, Abs format*
%FSLAX34Y34*%
G01*
G70*
G90*
G04 APERTURE LIST*
%ADD10C,0.005*%
%ADD11C,0.00393701*%
%ADD12C,0.00787402*%
%ADD13C,0.011811*%
G04 APERTURE END LIST*
G54D10*
G54D11*
X107322Y-58346D02*
X107322Y-38267D01*
X77795Y-58346D02*
X77795Y-38267D01*
X77795Y-58346D02*
X107322Y-58346D01*
X77795Y-38267D02*
X107322Y-38267D01*
G54D12*
X80855Y-55115D02*
X81105Y-55365D01*
X81105Y-55115D02*
X80855Y-55365D01*
X81203Y-51065D02*
X81453Y-51315D01*
X81453Y-51065D02*
X81203Y-51315D01*
X81321Y-42227D02*
X81571Y-42477D01*
X81571Y-42227D02*
X81321Y-42477D01*
X81745Y-49560D02*
X81995Y-49810D01*
X81995Y-49560D02*
X81745Y-49810D01*
X82406Y-55134D02*
X82656Y-55384D01*
X82656Y-55134D02*
X82406Y-55384D01*
X83536Y-39934D02*
X83786Y-40184D01*
X83786Y-39934D02*
X83536Y-40184D01*
X84260Y-55540D02*
X84510Y-55790D01*
X84510Y-55540D02*
X84260Y-55790D01*
X84386Y-54441D02*
X84636Y-54691D01*
X84636Y-54441D02*
X84386Y-54691D01*
X84934Y-56241D02*
X85184Y-56491D01*
X85184Y-56241D02*
X84934Y-56491D01*
X85189Y-50268D02*
X85439Y-50518D01*
X85439Y-50268D02*
X85189Y-50518D01*
X85810Y-46715D02*
X86060Y-46965D01*
X86060Y-46715D02*
X85810Y-46965D01*
X86528Y-41154D02*
X86778Y-41404D01*
X86778Y-41154D02*
X86528Y-41404D01*
X86528Y-49815D02*
X86778Y-50065D01*
X86778Y-49815D02*
X86528Y-50065D01*
X86607Y-48182D02*
X86857Y-48432D01*
X86857Y-48182D02*
X86607Y-48432D01*
X86991Y-53743D02*
X87241Y-53993D01*
X87241Y-53743D02*
X86991Y-53993D01*
X87050Y-55209D02*
X87300Y-55459D01*
X87300Y-55209D02*
X87050Y-55459D01*
X87052Y-55890D02*
X87302Y-56140D01*
X87302Y-55890D02*
X87052Y-56140D01*
X87069Y-52384D02*
X87319Y-52634D01*
X87319Y-52384D02*
X87069Y-52634D01*
X87217Y-47148D02*
X87467Y-47398D01*
X87467Y-47148D02*
X87217Y-47398D01*
X87516Y-54434D02*
X87766Y-54684D01*
X87766Y-54434D02*
X87516Y-54684D01*
X87536Y-51764D02*
X87786Y-52014D01*
X87786Y-51764D02*
X87536Y-52014D01*
X88300Y-54806D02*
X88550Y-55056D01*
X88550Y-54806D02*
X88300Y-55056D01*
X88310Y-52955D02*
X88560Y-53205D01*
X88560Y-52955D02*
X88310Y-53205D01*
X88713Y-47788D02*
X88963Y-48038D01*
X88963Y-47788D02*
X88713Y-48038D01*
X88863Y-51926D02*
X89113Y-52176D01*
X89113Y-51926D02*
X88863Y-52176D01*
X88949Y-43969D02*
X89199Y-44219D01*
X89199Y-43969D02*
X88949Y-44219D01*
X89205Y-45445D02*
X89455Y-45695D01*
X89455Y-45445D02*
X89205Y-45695D01*
X89441Y-39934D02*
X89691Y-40184D01*
X89691Y-39934D02*
X89441Y-40184D01*
X89441Y-41115D02*
X89691Y-41365D01*
X89691Y-41115D02*
X89441Y-41365D01*
X89747Y-48467D02*
X89997Y-48717D01*
X89997Y-48467D02*
X89747Y-48717D01*
X90426Y-43969D02*
X90676Y-44219D01*
X90676Y-43969D02*
X90426Y-44219D01*
X90613Y-46302D02*
X90863Y-46552D01*
X90863Y-46302D02*
X90613Y-46552D01*
X90918Y-41115D02*
X91168Y-41365D01*
X91168Y-41115D02*
X90918Y-41365D01*
X91567Y-46371D02*
X91817Y-46621D01*
X91817Y-46371D02*
X91567Y-46621D01*
X91587Y-45308D02*
X91837Y-45558D01*
X91837Y-45308D02*
X91587Y-45558D01*
X91607Y-45839D02*
X91857Y-46089D01*
X91857Y-45839D02*
X91607Y-46089D01*
X91705Y-43969D02*
X91955Y-44219D01*
X91955Y-43969D02*
X91705Y-44219D01*
X92182Y-55489D02*
X92432Y-55739D01*
X92432Y-55489D02*
X92182Y-55739D01*
X92335Y-47650D02*
X92585Y-47900D01*
X92585Y-47650D02*
X92335Y-47900D01*
X92481Y-50032D02*
X92731Y-50282D01*
X92731Y-50032D02*
X92481Y-50282D01*
X92528Y-52075D02*
X92778Y-52325D01*
X92778Y-52075D02*
X92528Y-52325D01*
X92886Y-40032D02*
X93136Y-40282D01*
X93136Y-40032D02*
X92886Y-40282D01*
X92886Y-41115D02*
X93136Y-41365D01*
X93136Y-41115D02*
X92886Y-41365D01*
X92949Y-47623D02*
X93199Y-47873D01*
X93199Y-47623D02*
X92949Y-47873D01*
X93113Y-45150D02*
X93363Y-45400D01*
X93363Y-45150D02*
X93113Y-45400D01*
X93875Y-43475D02*
X94125Y-43725D01*
X94125Y-43475D02*
X93875Y-43725D01*
X94077Y-45682D02*
X94327Y-45932D01*
X94327Y-45682D02*
X94077Y-45932D01*
X94176Y-45209D02*
X94426Y-45459D01*
X94426Y-45209D02*
X94176Y-45459D01*
X94426Y-50721D02*
X94676Y-50971D01*
X94676Y-50721D02*
X94426Y-50971D01*
X94599Y-45721D02*
X94849Y-45971D01*
X94849Y-45721D02*
X94599Y-45971D01*
X94619Y-44815D02*
X94869Y-45065D01*
X94869Y-44815D02*
X94619Y-45065D01*
X94875Y-47855D02*
X95125Y-48105D01*
X95125Y-47855D02*
X94875Y-48105D01*
X94894Y-50721D02*
X95144Y-50971D01*
X95144Y-50721D02*
X94894Y-50971D01*
X94975Y-41775D02*
X95225Y-42025D01*
X95225Y-41775D02*
X94975Y-42025D01*
X95081Y-45760D02*
X95331Y-46010D01*
X95331Y-45760D02*
X95081Y-46010D01*
X95575Y-50375D02*
X95825Y-50625D01*
X95825Y-50375D02*
X95575Y-50625D01*
X95603Y-45780D02*
X95853Y-46030D01*
X95853Y-45780D02*
X95603Y-46030D01*
X96036Y-39737D02*
X96286Y-39987D01*
X96286Y-39737D02*
X96036Y-39987D01*
X96400Y-46951D02*
X96650Y-47201D01*
X96650Y-46951D02*
X96400Y-47201D01*
X96674Y-51745D02*
X96924Y-51995D01*
X96924Y-51745D02*
X96674Y-51995D01*
X96725Y-45591D02*
X96975Y-45841D01*
X96975Y-45591D02*
X96725Y-45841D01*
X96882Y-46971D02*
X97132Y-47221D01*
X97132Y-46971D02*
X96882Y-47221D01*
X96981Y-49432D02*
X97231Y-49682D01*
X97231Y-49432D02*
X96981Y-49682D01*
X96989Y-49890D02*
X97239Y-50140D01*
X97239Y-49890D02*
X96989Y-50140D01*
X97138Y-50599D02*
X97388Y-50849D01*
X97388Y-50599D02*
X97138Y-50849D01*
X97237Y-48457D02*
X97487Y-48707D01*
X97487Y-48457D02*
X97237Y-48707D01*
X97453Y-55839D02*
X97703Y-56089D01*
X97703Y-55839D02*
X97453Y-56089D01*
X97502Y-49274D02*
X97752Y-49524D01*
X97752Y-49274D02*
X97502Y-49524D01*
X97581Y-54835D02*
X97831Y-55085D01*
X97831Y-54835D02*
X97581Y-55085D01*
X97680Y-46390D02*
X97930Y-46640D01*
X97930Y-46390D02*
X97680Y-46640D01*
X98044Y-44313D02*
X98294Y-44563D01*
X98294Y-44313D02*
X98044Y-44563D01*
X98073Y-54904D02*
X98323Y-55154D01*
X98323Y-54904D02*
X98073Y-55154D01*
X98191Y-51686D02*
X98441Y-51936D01*
X98441Y-51686D02*
X98191Y-51936D01*
X98506Y-52375D02*
X98756Y-52625D01*
X98756Y-52375D02*
X98506Y-52625D01*
X98540Y-49406D02*
X98790Y-49656D01*
X98790Y-49406D02*
X98540Y-49656D01*
X98556Y-48701D02*
X98806Y-48951D01*
X98806Y-48701D02*
X98556Y-48951D01*
X98772Y-46823D02*
X99022Y-47073D01*
X99022Y-46823D02*
X98772Y-47073D01*
X98898Y-50969D02*
X99148Y-51219D01*
X99148Y-50969D02*
X98898Y-51219D01*
X98959Y-45317D02*
X99209Y-45567D01*
X99209Y-45317D02*
X98959Y-45567D01*
X99493Y-48441D02*
X99743Y-48691D01*
X99743Y-48441D02*
X99493Y-48691D01*
X99945Y-48020D02*
X100195Y-48270D01*
X100195Y-48020D02*
X99945Y-48270D01*
X100396Y-48871D02*
X100646Y-49121D01*
X100646Y-48871D02*
X100396Y-49121D01*
X100741Y-51774D02*
X100991Y-52024D01*
X100991Y-51774D02*
X100741Y-52024D01*
X101241Y-55146D02*
X101491Y-55396D01*
X101491Y-55146D02*
X101241Y-55396D01*
X101292Y-53506D02*
X101542Y-53756D01*
X101542Y-53506D02*
X101292Y-53756D01*
X103437Y-48457D02*
X103687Y-48707D01*
X103687Y-48457D02*
X103437Y-48707D01*
X103457Y-49560D02*
X103707Y-49810D01*
X103707Y-49560D02*
X103457Y-49810D01*
X104784Y-49375D02*
X105034Y-49625D01*
X105034Y-49375D02*
X104784Y-49625D01*
X105268Y-47158D02*
X105518Y-47408D01*
X105518Y-47158D02*
X105268Y-47408D01*
X105278Y-48250D02*
X105528Y-48500D01*
X105528Y-48250D02*
X105278Y-48500D01*
X92661Y-53700D02*
G75*
G03X92661Y-53700I-157J0D01*
G74*
G01*
X94582Y-53700D02*
G75*
G03X94582Y-53700I-157J0D01*
G74*
G01*
X105078Y-53248D02*
G75*
G03X105078Y-53248I-157J0D01*
G74*
G01*
X105078Y-55807D02*
G75*
G03X105078Y-55807I-157J0D01*
G74*
G01*
X106850Y-53248D02*
G75*
G03X106850Y-53248I-157J0D01*
G74*
G01*
X106850Y-55807D02*
G75*
G03X106850Y-55807I-157J0D01*
G74*
G01*
X99893Y-40686D02*
X99893Y-41006D01*
X99733Y-40846D02*
X100053Y-40846D01*
X100893Y-40686D02*
X100893Y-41006D01*
X100733Y-40846D02*
X101053Y-40846D01*
X102748Y-40686D02*
X102748Y-41006D01*
X102588Y-40846D02*
X102908Y-40846D01*
X103748Y-40686D02*
X103748Y-41006D01*
X103588Y-40846D02*
X103908Y-40846D01*
X78842Y-44129D02*
X78842Y-43846D01*
X78559Y-43846D01*
X78559Y-44129D01*
X78842Y-44129D01*
X78842Y-45129D02*
X78842Y-44846D01*
X78559Y-44846D01*
X78559Y-45129D01*
X78842Y-45129D01*
X78842Y-49822D02*
X78842Y-49539D01*
X78559Y-49539D01*
X78559Y-49822D01*
X78842Y-49822D01*
X78842Y-50822D02*
X78842Y-50539D01*
X78559Y-50539D01*
X78559Y-50822D01*
X78842Y-50822D01*
X78842Y-51822D02*
X78842Y-51539D01*
X78559Y-51539D01*
X78559Y-51822D01*
X78842Y-51822D01*
X78842Y-52822D02*
X78842Y-52539D01*
X78559Y-52539D01*
X78559Y-52822D01*
X78842Y-52822D01*
X78842Y-55377D02*
X78842Y-55094D01*
X78559Y-55094D01*
X78559Y-55377D01*
X78842Y-55377D01*
X81787Y-39511D02*
X81787Y-39228D01*
X81504Y-39228D01*
X81504Y-39511D01*
X81787Y-39511D01*
X81787Y-57228D02*
X81787Y-56945D01*
X81504Y-56945D01*
X81504Y-57228D01*
X81787Y-57228D01*
X82787Y-39511D02*
X82787Y-39228D01*
X82504Y-39228D01*
X82504Y-39511D01*
X82787Y-39511D01*
X82787Y-57228D02*
X82787Y-56945D01*
X82504Y-56945D01*
X82504Y-57228D01*
X82787Y-57228D01*
X83787Y-39511D02*
X83787Y-39228D01*
X83504Y-39228D01*
X83504Y-39511D01*
X83787Y-39511D01*
X83787Y-57228D02*
X83787Y-56945D01*
X83504Y-56945D01*
X83504Y-57228D01*
X83787Y-57228D01*
X84787Y-39511D02*
X84787Y-39228D01*
X84504Y-39228D01*
X84504Y-39511D01*
X84787Y-39511D01*
X84787Y-57228D02*
X84787Y-56945D01*
X84504Y-56945D01*
X84504Y-57228D01*
X84787Y-57228D01*
X85787Y-39511D02*
X85787Y-39228D01*
X85504Y-39228D01*
X85504Y-39511D01*
X85787Y-39511D01*
X85787Y-57228D02*
X85787Y-56945D01*
X85504Y-56945D01*
X85504Y-57228D01*
X85787Y-57228D01*
X86787Y-39511D02*
X86787Y-39228D01*
X86504Y-39228D01*
X86504Y-39511D01*
X86787Y-39511D01*
X86787Y-57228D02*
X86787Y-56945D01*
X86504Y-56945D01*
X86504Y-57228D01*
X86787Y-57228D01*
X87787Y-39511D02*
X87787Y-39228D01*
X87504Y-39228D01*
X87504Y-39511D01*
X87787Y-39511D01*
X87787Y-57228D02*
X87787Y-56945D01*
X87504Y-56945D01*
X87504Y-57228D01*
X87787Y-57228D01*
X88787Y-39511D02*
X88787Y-39228D01*
X88504Y-39228D01*
X88504Y-39511D01*
X88787Y-39511D01*
X88787Y-57228D02*
X88787Y-56945D01*
X88504Y-56945D01*
X88504Y-57228D01*
X88787Y-57228D01*
X98035Y-57228D02*
X98035Y-56945D01*
X97752Y-56945D01*
X97752Y-57228D01*
X98035Y-57228D01*
X99035Y-57228D02*
X99035Y-56945D01*
X98752Y-56945D01*
X98752Y-57228D01*
X99035Y-57228D01*
X100035Y-57228D02*
X100035Y-56945D01*
X99752Y-56945D01*
X99752Y-57228D01*
X100035Y-57228D01*
X101035Y-57228D02*
X101035Y-56945D01*
X100752Y-56945D01*
X100752Y-57228D01*
X101035Y-57228D01*
X101846Y-46747D02*
X101846Y-46464D01*
X101563Y-46464D01*
X101563Y-46747D01*
X101846Y-46747D01*
X101846Y-47747D02*
X101846Y-47464D01*
X101563Y-47464D01*
X101563Y-47747D01*
X101846Y-47747D01*
X101846Y-48747D02*
X101846Y-48464D01*
X101563Y-48464D01*
X101563Y-48747D01*
X101846Y-48747D01*
X101846Y-49708D02*
X101846Y-49425D01*
X101563Y-49425D01*
X101563Y-49708D01*
X101846Y-49708D01*
X101846Y-50747D02*
X101846Y-50464D01*
X101563Y-50464D01*
X101563Y-50747D01*
X101846Y-50747D01*
X101846Y-51747D02*
X101846Y-51464D01*
X101563Y-51464D01*
X101563Y-51747D01*
X101846Y-51747D01*
X101846Y-52747D02*
X101846Y-52464D01*
X101563Y-52464D01*
X101563Y-52747D01*
X101846Y-52747D01*
X102035Y-57228D02*
X102035Y-56945D01*
X101752Y-56945D01*
X101752Y-57228D01*
X102035Y-57228D01*
X102846Y-46747D02*
X102846Y-46464D01*
X102563Y-46464D01*
X102563Y-46747D01*
X102846Y-46747D01*
X102846Y-47747D02*
X102846Y-47464D01*
X102563Y-47464D01*
X102563Y-47747D01*
X102846Y-47747D01*
X102846Y-48747D02*
X102846Y-48464D01*
X102563Y-48464D01*
X102563Y-48747D01*
X102846Y-48747D01*
X102846Y-49747D02*
X102846Y-49464D01*
X102563Y-49464D01*
X102563Y-49747D01*
X102846Y-49747D01*
X102846Y-52747D02*
X102846Y-52464D01*
X102563Y-52464D01*
X102563Y-52747D01*
X102846Y-52747D01*
X102857Y-50747D02*
X102857Y-50464D01*
X102575Y-50464D01*
X102575Y-50747D01*
X102857Y-50747D01*
X102877Y-51747D02*
X102877Y-51464D01*
X102594Y-51464D01*
X102594Y-51747D01*
X102877Y-51747D01*
X103035Y-57228D02*
X103035Y-56945D01*
X102752Y-56945D01*
X102752Y-57228D01*
X103035Y-57228D01*
X106440Y-39798D02*
X106440Y-39516D01*
X106157Y-39516D01*
X106157Y-39798D01*
X106440Y-39798D01*
X106440Y-40798D02*
X106440Y-40516D01*
X106157Y-40516D01*
X106157Y-40798D01*
X106440Y-40798D01*
X106440Y-42751D02*
X106440Y-42468D01*
X106157Y-42468D01*
X106157Y-42751D01*
X106440Y-42751D01*
X106440Y-43751D02*
X106440Y-43468D01*
X106157Y-43468D01*
X106157Y-43751D01*
X106440Y-43751D01*
X106440Y-45220D02*
X106440Y-44937D01*
X106157Y-44937D01*
X106157Y-45220D01*
X106440Y-45220D01*
X106440Y-46771D02*
X106440Y-46488D01*
X106157Y-46488D01*
X106157Y-46771D01*
X106440Y-46771D01*
X106440Y-47771D02*
X106440Y-47488D01*
X106157Y-47488D01*
X106157Y-47771D01*
X106440Y-47771D01*
X106440Y-48771D02*
X106440Y-48488D01*
X106157Y-48488D01*
X106157Y-48771D01*
X106440Y-48771D01*
X106440Y-49771D02*
X106440Y-49488D01*
X106157Y-49488D01*
X106157Y-49771D01*
X106440Y-49771D01*
G54D13*
X78844Y-60143D02*
X78844Y-58962D01*
X79125Y-58962D01*
X79294Y-59018D01*
X79406Y-59131D01*
X79462Y-59243D01*
X79519Y-59468D01*
X79519Y-59637D01*
X79462Y-59862D01*
X79406Y-59974D01*
X79294Y-60087D01*
X79125Y-60143D01*
X78844Y-60143D01*
X80025Y-60143D02*
X80025Y-59356D01*
X80025Y-59580D02*
X80081Y-59468D01*
X80137Y-59412D01*
X80250Y-59356D01*
X80362Y-59356D01*
X80756Y-60143D02*
X80756Y-59356D01*
X80756Y-58962D02*
X80700Y-59018D01*
X80756Y-59074D01*
X80812Y-59018D01*
X80756Y-58962D01*
X80756Y-59074D01*
X81487Y-60143D02*
X81375Y-60087D01*
X81318Y-59974D01*
X81318Y-58962D01*
X82106Y-60143D02*
X81993Y-60087D01*
X81937Y-59974D01*
X81937Y-58962D01*
X83456Y-60143D02*
X83456Y-58962D01*
X83849Y-59805D01*
X84243Y-58962D01*
X84243Y-60143D01*
X85312Y-60143D02*
X85312Y-59524D01*
X85255Y-59412D01*
X85143Y-59356D01*
X84918Y-59356D01*
X84805Y-59412D01*
X85312Y-60087D02*
X85199Y-60143D01*
X84918Y-60143D01*
X84805Y-60087D01*
X84749Y-59974D01*
X84749Y-59862D01*
X84805Y-59749D01*
X84918Y-59693D01*
X85199Y-59693D01*
X85312Y-59637D01*
X85874Y-59356D02*
X85874Y-60537D01*
X85874Y-59412D02*
X85987Y-59356D01*
X86212Y-59356D01*
X86324Y-59412D01*
X86380Y-59468D01*
X86437Y-59580D01*
X86437Y-59918D01*
X86380Y-60030D01*
X86324Y-60087D01*
X86212Y-60143D01*
X85987Y-60143D01*
X85874Y-60087D01*
X86943Y-60030D02*
X86999Y-60087D01*
X86943Y-60143D01*
X86886Y-60087D01*
X86943Y-60030D01*
X86943Y-60143D01*
X86943Y-59412D02*
X86999Y-59468D01*
X86943Y-59524D01*
X86886Y-59468D01*
X86943Y-59412D01*
X86943Y-59524D01*
X77525Y-62020D02*
X77775Y-62270D01*
X77775Y-62020D02*
X77525Y-62270D01*
X79069Y-61442D02*
X79181Y-61442D01*
X79294Y-61498D01*
X79350Y-61555D01*
X79406Y-61667D01*
X79462Y-61892D01*
X79462Y-62173D01*
X79406Y-62398D01*
X79350Y-62511D01*
X79294Y-62567D01*
X79181Y-62623D01*
X79069Y-62623D01*
X78956Y-62567D01*
X78900Y-62511D01*
X78844Y-62398D01*
X78787Y-62173D01*
X78787Y-61892D01*
X78844Y-61667D01*
X78900Y-61555D01*
X78956Y-61498D01*
X79069Y-61442D01*
X79969Y-62511D02*
X80025Y-62567D01*
X79969Y-62623D01*
X79912Y-62567D01*
X79969Y-62511D01*
X79969Y-62623D01*
X81037Y-61442D02*
X80812Y-61442D01*
X80700Y-61498D01*
X80643Y-61555D01*
X80531Y-61723D01*
X80475Y-61948D01*
X80475Y-62398D01*
X80531Y-62511D01*
X80587Y-62567D01*
X80700Y-62623D01*
X80925Y-62623D01*
X81037Y-62567D01*
X81093Y-62511D01*
X81150Y-62398D01*
X81150Y-62117D01*
X81093Y-62005D01*
X81037Y-61948D01*
X80925Y-61892D01*
X80700Y-61892D01*
X80587Y-61948D01*
X80531Y-62005D01*
X80475Y-62117D01*
X82162Y-61836D02*
X82162Y-62623D01*
X81881Y-61386D02*
X81600Y-62230D01*
X82331Y-62230D01*
X82781Y-62623D02*
X82781Y-61836D01*
X82781Y-61948D02*
X82837Y-61892D01*
X82949Y-61836D01*
X83118Y-61836D01*
X83231Y-61892D01*
X83287Y-62005D01*
X83287Y-62623D01*
X83287Y-62005D02*
X83343Y-61892D01*
X83456Y-61836D01*
X83624Y-61836D01*
X83737Y-61892D01*
X83793Y-62005D01*
X83793Y-62623D01*
X84356Y-62623D02*
X84356Y-61836D01*
X84356Y-61948D02*
X84412Y-61892D01*
X84524Y-61836D01*
X84693Y-61836D01*
X84805Y-61892D01*
X84862Y-62005D01*
X84862Y-62623D01*
X84862Y-62005D02*
X84918Y-61892D01*
X85030Y-61836D01*
X85199Y-61836D01*
X85312Y-61892D01*
X85368Y-62005D01*
X85368Y-62623D01*
X87674Y-61386D02*
X86661Y-62904D01*
X89192Y-61442D02*
X89305Y-61442D01*
X89417Y-61498D01*
X89474Y-61555D01*
X89530Y-61667D01*
X89586Y-61892D01*
X89586Y-62173D01*
X89530Y-62398D01*
X89474Y-62511D01*
X89417Y-62567D01*
X89305Y-62623D01*
X89192Y-62623D01*
X89080Y-62567D01*
X89024Y-62511D01*
X88967Y-62398D01*
X88911Y-62173D01*
X88911Y-61892D01*
X88967Y-61667D01*
X89024Y-61555D01*
X89080Y-61498D01*
X89192Y-61442D01*
X90092Y-62511D02*
X90149Y-62567D01*
X90092Y-62623D01*
X90036Y-62567D01*
X90092Y-62511D01*
X90092Y-62623D01*
X90880Y-61442D02*
X90992Y-61442D01*
X91105Y-61498D01*
X91161Y-61555D01*
X91217Y-61667D01*
X91273Y-61892D01*
X91273Y-62173D01*
X91217Y-62398D01*
X91161Y-62511D01*
X91105Y-62567D01*
X90992Y-62623D01*
X90880Y-62623D01*
X90767Y-62567D01*
X90711Y-62511D01*
X90655Y-62398D01*
X90598Y-62173D01*
X90598Y-61892D01*
X90655Y-61667D01*
X90711Y-61555D01*
X90767Y-61498D01*
X90880Y-61442D01*
X91723Y-61555D02*
X91780Y-61498D01*
X91892Y-61442D01*
X92173Y-61442D01*
X92286Y-61498D01*
X92342Y-61555D01*
X92398Y-61667D01*
X92398Y-61780D01*
X92342Y-61948D01*
X91667Y-62623D01*
X92398Y-62623D01*
X93467Y-61442D02*
X92904Y-61442D01*
X92848Y-62005D01*
X92904Y-61948D01*
X93017Y-61892D01*
X93298Y-61892D01*
X93411Y-61948D01*
X93467Y-62005D01*
X93523Y-62117D01*
X93523Y-62398D01*
X93467Y-62511D01*
X93411Y-62567D01*
X93298Y-62623D01*
X93017Y-62623D01*
X92904Y-62567D01*
X92848Y-62511D01*
X93973Y-61442D02*
X93973Y-61667D01*
X94423Y-61442D02*
X94423Y-61667D01*
X96167Y-63073D02*
X96110Y-63017D01*
X95998Y-62848D01*
X95942Y-62736D01*
X95885Y-62567D01*
X95829Y-62286D01*
X95829Y-62061D01*
X95885Y-61780D01*
X95942Y-61611D01*
X95998Y-61498D01*
X96110Y-61330D01*
X96167Y-61273D01*
X96673Y-62623D02*
X96898Y-62623D01*
X97010Y-62567D01*
X97066Y-62511D01*
X97179Y-62342D01*
X97235Y-62117D01*
X97235Y-61667D01*
X97179Y-61555D01*
X97123Y-61498D01*
X97010Y-61442D01*
X96785Y-61442D01*
X96673Y-61498D01*
X96616Y-61555D01*
X96560Y-61667D01*
X96560Y-61948D01*
X96616Y-62061D01*
X96673Y-62117D01*
X96785Y-62173D01*
X97010Y-62173D01*
X97123Y-62117D01*
X97179Y-62061D01*
X97235Y-61948D01*
X97966Y-61442D02*
X98079Y-61442D01*
X98191Y-61498D01*
X98248Y-61555D01*
X98304Y-61667D01*
X98360Y-61892D01*
X98360Y-62173D01*
X98304Y-62398D01*
X98248Y-62511D01*
X98191Y-62567D01*
X98079Y-62623D01*
X97966Y-62623D01*
X97854Y-62567D01*
X97798Y-62511D01*
X97741Y-62398D01*
X97685Y-62173D01*
X97685Y-61892D01*
X97741Y-61667D01*
X97798Y-61555D01*
X97854Y-61498D01*
X97966Y-61442D01*
X99766Y-62623D02*
X99766Y-61442D01*
X100272Y-62623D02*
X100272Y-62005D01*
X100216Y-61892D01*
X100104Y-61836D01*
X99935Y-61836D01*
X99822Y-61892D01*
X99766Y-61948D01*
X101003Y-62623D02*
X100891Y-62567D01*
X100835Y-62511D01*
X100778Y-62398D01*
X100778Y-62061D01*
X100835Y-61948D01*
X100891Y-61892D01*
X101003Y-61836D01*
X101172Y-61836D01*
X101285Y-61892D01*
X101341Y-61948D01*
X101397Y-62061D01*
X101397Y-62398D01*
X101341Y-62511D01*
X101285Y-62567D01*
X101172Y-62623D01*
X101003Y-62623D01*
X102072Y-62623D02*
X101960Y-62567D01*
X101903Y-62455D01*
X101903Y-61442D01*
X102972Y-62567D02*
X102859Y-62623D01*
X102634Y-62623D01*
X102522Y-62567D01*
X102466Y-62455D01*
X102466Y-62005D01*
X102522Y-61892D01*
X102634Y-61836D01*
X102859Y-61836D01*
X102972Y-61892D01*
X103028Y-62005D01*
X103028Y-62117D01*
X102466Y-62230D01*
X103478Y-62567D02*
X103591Y-62623D01*
X103816Y-62623D01*
X103928Y-62567D01*
X103984Y-62455D01*
X103984Y-62398D01*
X103928Y-62286D01*
X103816Y-62230D01*
X103647Y-62230D01*
X103534Y-62173D01*
X103478Y-62061D01*
X103478Y-62005D01*
X103534Y-61892D01*
X103647Y-61836D01*
X103816Y-61836D01*
X103928Y-61892D01*
X104378Y-63073D02*
X104434Y-63017D01*
X104547Y-62848D01*
X104603Y-62736D01*
X104659Y-62567D01*
X104715Y-62286D01*
X104715Y-62061D01*
X104659Y-61780D01*
X104603Y-61611D01*
X104547Y-61498D01*
X104434Y-61330D01*
X104378Y-61273D01*
G54D12*
X77775Y-63704D02*
G75*
G03X77775Y-63704I-157J0D01*
G74*
G01*
G54D13*
X79069Y-63001D02*
X79181Y-63001D01*
X79294Y-63057D01*
X79350Y-63114D01*
X79406Y-63226D01*
X79462Y-63451D01*
X79462Y-63732D01*
X79406Y-63957D01*
X79350Y-64070D01*
X79294Y-64126D01*
X79181Y-64182D01*
X79069Y-64182D01*
X78956Y-64126D01*
X78900Y-64070D01*
X78844Y-63957D01*
X78787Y-63732D01*
X78787Y-63451D01*
X78844Y-63226D01*
X78900Y-63114D01*
X78956Y-63057D01*
X79069Y-63001D01*
X79969Y-64070D02*
X80025Y-64126D01*
X79969Y-64182D01*
X79912Y-64126D01*
X79969Y-64070D01*
X79969Y-64182D01*
X80700Y-63507D02*
X80587Y-63451D01*
X80531Y-63395D01*
X80475Y-63282D01*
X80475Y-63226D01*
X80531Y-63114D01*
X80587Y-63057D01*
X80700Y-63001D01*
X80925Y-63001D01*
X81037Y-63057D01*
X81093Y-63114D01*
X81150Y-63226D01*
X81150Y-63282D01*
X81093Y-63395D01*
X81037Y-63451D01*
X80925Y-63507D01*
X80700Y-63507D01*
X80587Y-63564D01*
X80531Y-63620D01*
X80475Y-63732D01*
X80475Y-63957D01*
X80531Y-64070D01*
X80587Y-64126D01*
X80700Y-64182D01*
X80925Y-64182D01*
X81037Y-64126D01*
X81093Y-64070D01*
X81150Y-63957D01*
X81150Y-63732D01*
X81093Y-63620D01*
X81037Y-63564D01*
X80925Y-63507D01*
X81881Y-63001D02*
X81993Y-63001D01*
X82106Y-63057D01*
X82162Y-63114D01*
X82218Y-63226D01*
X82275Y-63451D01*
X82275Y-63732D01*
X82218Y-63957D01*
X82162Y-64070D01*
X82106Y-64126D01*
X81993Y-64182D01*
X81881Y-64182D01*
X81768Y-64126D01*
X81712Y-64070D01*
X81656Y-63957D01*
X81600Y-63732D01*
X81600Y-63451D01*
X81656Y-63226D01*
X81712Y-63114D01*
X81768Y-63057D01*
X81881Y-63001D01*
X82781Y-64182D02*
X82781Y-63395D01*
X82781Y-63507D02*
X82837Y-63451D01*
X82949Y-63395D01*
X83118Y-63395D01*
X83231Y-63451D01*
X83287Y-63564D01*
X83287Y-64182D01*
X83287Y-63564D02*
X83343Y-63451D01*
X83456Y-63395D01*
X83624Y-63395D01*
X83737Y-63451D01*
X83793Y-63564D01*
X83793Y-64182D01*
X84356Y-64182D02*
X84356Y-63395D01*
X84356Y-63507D02*
X84412Y-63451D01*
X84524Y-63395D01*
X84693Y-63395D01*
X84805Y-63451D01*
X84862Y-63564D01*
X84862Y-64182D01*
X84862Y-63564D02*
X84918Y-63451D01*
X85030Y-63395D01*
X85199Y-63395D01*
X85312Y-63451D01*
X85368Y-63564D01*
X85368Y-64182D01*
X87674Y-62945D02*
X86661Y-64464D01*
X89192Y-63001D02*
X89305Y-63001D01*
X89417Y-63057D01*
X89474Y-63114D01*
X89530Y-63226D01*
X89586Y-63451D01*
X89586Y-63732D01*
X89530Y-63957D01*
X89474Y-64070D01*
X89417Y-64126D01*
X89305Y-64182D01*
X89192Y-64182D01*
X89080Y-64126D01*
X89024Y-64070D01*
X88967Y-63957D01*
X88911Y-63732D01*
X88911Y-63451D01*
X88967Y-63226D01*
X89024Y-63114D01*
X89080Y-63057D01*
X89192Y-63001D01*
X90092Y-64070D02*
X90149Y-64126D01*
X90092Y-64182D01*
X90036Y-64126D01*
X90092Y-64070D01*
X90092Y-64182D01*
X90880Y-63001D02*
X90992Y-63001D01*
X91105Y-63057D01*
X91161Y-63114D01*
X91217Y-63226D01*
X91273Y-63451D01*
X91273Y-63732D01*
X91217Y-63957D01*
X91161Y-64070D01*
X91105Y-64126D01*
X90992Y-64182D01*
X90880Y-64182D01*
X90767Y-64126D01*
X90711Y-64070D01*
X90655Y-63957D01*
X90598Y-63732D01*
X90598Y-63451D01*
X90655Y-63226D01*
X90711Y-63114D01*
X90767Y-63057D01*
X90880Y-63001D01*
X91667Y-63001D02*
X92398Y-63001D01*
X92005Y-63451D01*
X92173Y-63451D01*
X92286Y-63507D01*
X92342Y-63564D01*
X92398Y-63676D01*
X92398Y-63957D01*
X92342Y-64070D01*
X92286Y-64126D01*
X92173Y-64182D01*
X91836Y-64182D01*
X91723Y-64126D01*
X91667Y-64070D01*
X93523Y-64182D02*
X92848Y-64182D01*
X93186Y-64182D02*
X93186Y-63001D01*
X93073Y-63170D01*
X92961Y-63282D01*
X92848Y-63339D01*
X93973Y-63001D02*
X93973Y-63226D01*
X94423Y-63001D02*
X94423Y-63226D01*
X96167Y-64632D02*
X96110Y-64576D01*
X95998Y-64407D01*
X95942Y-64295D01*
X95885Y-64126D01*
X95829Y-63845D01*
X95829Y-63620D01*
X95885Y-63339D01*
X95942Y-63170D01*
X95998Y-63057D01*
X96110Y-62889D01*
X96167Y-62832D01*
X97123Y-63001D02*
X96898Y-63001D01*
X96785Y-63057D01*
X96729Y-63114D01*
X96616Y-63282D01*
X96560Y-63507D01*
X96560Y-63957D01*
X96616Y-64070D01*
X96673Y-64126D01*
X96785Y-64182D01*
X97010Y-64182D01*
X97123Y-64126D01*
X97179Y-64070D01*
X97235Y-63957D01*
X97235Y-63676D01*
X97179Y-63564D01*
X97123Y-63507D01*
X97010Y-63451D01*
X96785Y-63451D01*
X96673Y-63507D01*
X96616Y-63564D01*
X96560Y-63676D01*
X98641Y-64182D02*
X98641Y-63001D01*
X99147Y-64182D02*
X99147Y-63564D01*
X99091Y-63451D01*
X98979Y-63395D01*
X98810Y-63395D01*
X98697Y-63451D01*
X98641Y-63507D01*
X99879Y-64182D02*
X99766Y-64126D01*
X99710Y-64070D01*
X99654Y-63957D01*
X99654Y-63620D01*
X99710Y-63507D01*
X99766Y-63451D01*
X99879Y-63395D01*
X100047Y-63395D01*
X100160Y-63451D01*
X100216Y-63507D01*
X100272Y-63620D01*
X100272Y-63957D01*
X100216Y-64070D01*
X100160Y-64126D01*
X100047Y-64182D01*
X99879Y-64182D01*
X100947Y-64182D02*
X100835Y-64126D01*
X100778Y-64014D01*
X100778Y-63001D01*
X101847Y-64126D02*
X101735Y-64182D01*
X101510Y-64182D01*
X101397Y-64126D01*
X101341Y-64014D01*
X101341Y-63564D01*
X101397Y-63451D01*
X101510Y-63395D01*
X101735Y-63395D01*
X101847Y-63451D01*
X101903Y-63564D01*
X101903Y-63676D01*
X101341Y-63789D01*
X102353Y-64126D02*
X102466Y-64182D01*
X102691Y-64182D01*
X102803Y-64126D01*
X102859Y-64014D01*
X102859Y-63957D01*
X102803Y-63845D01*
X102691Y-63789D01*
X102522Y-63789D01*
X102410Y-63732D01*
X102353Y-63620D01*
X102353Y-63564D01*
X102410Y-63451D01*
X102522Y-63395D01*
X102691Y-63395D01*
X102803Y-63451D01*
X103253Y-64632D02*
X103309Y-64576D01*
X103422Y-64407D01*
X103478Y-64295D01*
X103534Y-64126D01*
X103591Y-63845D01*
X103591Y-63620D01*
X103534Y-63339D01*
X103478Y-63170D01*
X103422Y-63057D01*
X103309Y-62889D01*
X103253Y-62832D01*
X77615Y-65103D02*
X77615Y-65423D01*
X77455Y-65263D02*
X77775Y-65263D01*
X79069Y-64560D02*
X79181Y-64560D01*
X79294Y-64616D01*
X79350Y-64673D01*
X79406Y-64785D01*
X79462Y-65010D01*
X79462Y-65291D01*
X79406Y-65516D01*
X79350Y-65629D01*
X79294Y-65685D01*
X79181Y-65741D01*
X79069Y-65741D01*
X78956Y-65685D01*
X78900Y-65629D01*
X78844Y-65516D01*
X78787Y-65291D01*
X78787Y-65010D01*
X78844Y-64785D01*
X78900Y-64673D01*
X78956Y-64616D01*
X79069Y-64560D01*
X79969Y-65629D02*
X80025Y-65685D01*
X79969Y-65741D01*
X79912Y-65685D01*
X79969Y-65629D01*
X79969Y-65741D01*
X80700Y-65066D02*
X80587Y-65010D01*
X80531Y-64954D01*
X80475Y-64841D01*
X80475Y-64785D01*
X80531Y-64673D01*
X80587Y-64616D01*
X80700Y-64560D01*
X80925Y-64560D01*
X81037Y-64616D01*
X81093Y-64673D01*
X81150Y-64785D01*
X81150Y-64841D01*
X81093Y-64954D01*
X81037Y-65010D01*
X80925Y-65066D01*
X80700Y-65066D01*
X80587Y-65123D01*
X80531Y-65179D01*
X80475Y-65291D01*
X80475Y-65516D01*
X80531Y-65629D01*
X80587Y-65685D01*
X80700Y-65741D01*
X80925Y-65741D01*
X81037Y-65685D01*
X81093Y-65629D01*
X81150Y-65516D01*
X81150Y-65291D01*
X81093Y-65179D01*
X81037Y-65123D01*
X80925Y-65066D01*
X82275Y-65741D02*
X81600Y-65741D01*
X81937Y-65741D02*
X81937Y-64560D01*
X81825Y-64729D01*
X81712Y-64841D01*
X81600Y-64898D01*
X82781Y-65741D02*
X82781Y-64954D01*
X82781Y-65066D02*
X82837Y-65010D01*
X82949Y-64954D01*
X83118Y-64954D01*
X83231Y-65010D01*
X83287Y-65123D01*
X83287Y-65741D01*
X83287Y-65123D02*
X83343Y-65010D01*
X83456Y-64954D01*
X83624Y-64954D01*
X83737Y-65010D01*
X83793Y-65123D01*
X83793Y-65741D01*
X84356Y-65741D02*
X84356Y-64954D01*
X84356Y-65066D02*
X84412Y-65010D01*
X84524Y-64954D01*
X84693Y-64954D01*
X84805Y-65010D01*
X84862Y-65123D01*
X84862Y-65741D01*
X84862Y-65123D02*
X84918Y-65010D01*
X85030Y-64954D01*
X85199Y-64954D01*
X85312Y-65010D01*
X85368Y-65123D01*
X85368Y-65741D01*
X87674Y-64504D02*
X86661Y-66023D01*
X89192Y-64560D02*
X89305Y-64560D01*
X89417Y-64616D01*
X89474Y-64673D01*
X89530Y-64785D01*
X89586Y-65010D01*
X89586Y-65291D01*
X89530Y-65516D01*
X89474Y-65629D01*
X89417Y-65685D01*
X89305Y-65741D01*
X89192Y-65741D01*
X89080Y-65685D01*
X89024Y-65629D01*
X88967Y-65516D01*
X88911Y-65291D01*
X88911Y-65010D01*
X88967Y-64785D01*
X89024Y-64673D01*
X89080Y-64616D01*
X89192Y-64560D01*
X90092Y-65629D02*
X90149Y-65685D01*
X90092Y-65741D01*
X90036Y-65685D01*
X90092Y-65629D01*
X90092Y-65741D01*
X90880Y-64560D02*
X90992Y-64560D01*
X91105Y-64616D01*
X91161Y-64673D01*
X91217Y-64785D01*
X91273Y-65010D01*
X91273Y-65291D01*
X91217Y-65516D01*
X91161Y-65629D01*
X91105Y-65685D01*
X90992Y-65741D01*
X90880Y-65741D01*
X90767Y-65685D01*
X90711Y-65629D01*
X90655Y-65516D01*
X90598Y-65291D01*
X90598Y-65010D01*
X90655Y-64785D01*
X90711Y-64673D01*
X90767Y-64616D01*
X90880Y-64560D01*
X91667Y-64560D02*
X92398Y-64560D01*
X92005Y-65010D01*
X92173Y-65010D01*
X92286Y-65066D01*
X92342Y-65123D01*
X92398Y-65235D01*
X92398Y-65516D01*
X92342Y-65629D01*
X92286Y-65685D01*
X92173Y-65741D01*
X91836Y-65741D01*
X91723Y-65685D01*
X91667Y-65629D01*
X92848Y-64673D02*
X92904Y-64616D01*
X93017Y-64560D01*
X93298Y-64560D01*
X93411Y-64616D01*
X93467Y-64673D01*
X93523Y-64785D01*
X93523Y-64898D01*
X93467Y-65066D01*
X92792Y-65741D01*
X93523Y-65741D01*
X93973Y-64560D02*
X93973Y-64785D01*
X94423Y-64560D02*
X94423Y-64785D01*
X96167Y-66191D02*
X96110Y-66135D01*
X95998Y-65966D01*
X95942Y-65854D01*
X95885Y-65685D01*
X95829Y-65404D01*
X95829Y-65179D01*
X95885Y-64898D01*
X95942Y-64729D01*
X95998Y-64616D01*
X96110Y-64448D01*
X96167Y-64392D01*
X97123Y-64954D02*
X97123Y-65741D01*
X96841Y-64504D02*
X96560Y-65348D01*
X97291Y-65348D01*
X98641Y-65741D02*
X98641Y-64560D01*
X99147Y-65741D02*
X99147Y-65123D01*
X99091Y-65010D01*
X98979Y-64954D01*
X98810Y-64954D01*
X98697Y-65010D01*
X98641Y-65066D01*
X99879Y-65741D02*
X99766Y-65685D01*
X99710Y-65629D01*
X99654Y-65516D01*
X99654Y-65179D01*
X99710Y-65066D01*
X99766Y-65010D01*
X99879Y-64954D01*
X100047Y-64954D01*
X100160Y-65010D01*
X100216Y-65066D01*
X100272Y-65179D01*
X100272Y-65516D01*
X100216Y-65629D01*
X100160Y-65685D01*
X100047Y-65741D01*
X99879Y-65741D01*
X100947Y-65741D02*
X100835Y-65685D01*
X100778Y-65573D01*
X100778Y-64560D01*
X101847Y-65685D02*
X101735Y-65741D01*
X101510Y-65741D01*
X101397Y-65685D01*
X101341Y-65573D01*
X101341Y-65123D01*
X101397Y-65010D01*
X101510Y-64954D01*
X101735Y-64954D01*
X101847Y-65010D01*
X101903Y-65123D01*
X101903Y-65235D01*
X101341Y-65348D01*
X102353Y-65685D02*
X102466Y-65741D01*
X102691Y-65741D01*
X102803Y-65685D01*
X102859Y-65573D01*
X102859Y-65516D01*
X102803Y-65404D01*
X102691Y-65348D01*
X102522Y-65348D01*
X102410Y-65291D01*
X102353Y-65179D01*
X102353Y-65123D01*
X102410Y-65010D01*
X102522Y-64954D01*
X102691Y-64954D01*
X102803Y-65010D01*
X103253Y-66191D02*
X103309Y-66135D01*
X103422Y-65966D01*
X103478Y-65854D01*
X103534Y-65685D01*
X103591Y-65404D01*
X103591Y-65179D01*
X103534Y-64898D01*
X103478Y-64729D01*
X103422Y-64616D01*
X103309Y-64448D01*
X103253Y-64392D01*
G54D12*
X77717Y-66964D02*
X77717Y-66681D01*
X77434Y-66681D01*
X77434Y-66964D01*
X77717Y-66964D01*
G54D13*
X79462Y-67300D02*
X78787Y-67300D01*
X79125Y-67300D02*
X79125Y-66119D01*
X79012Y-66288D01*
X78900Y-66401D01*
X78787Y-66457D01*
X79969Y-67188D02*
X80025Y-67244D01*
X79969Y-67300D01*
X79912Y-67244D01*
X79969Y-67188D01*
X79969Y-67300D01*
X80756Y-66119D02*
X80868Y-66119D01*
X80981Y-66176D01*
X81037Y-66232D01*
X81093Y-66344D01*
X81150Y-66569D01*
X81150Y-66850D01*
X81093Y-67075D01*
X81037Y-67188D01*
X80981Y-67244D01*
X80868Y-67300D01*
X80756Y-67300D01*
X80643Y-67244D01*
X80587Y-67188D01*
X80531Y-67075D01*
X80475Y-66850D01*
X80475Y-66569D01*
X80531Y-66344D01*
X80587Y-66232D01*
X80643Y-66176D01*
X80756Y-66119D01*
X81600Y-66232D02*
X81656Y-66176D01*
X81768Y-66119D01*
X82050Y-66119D01*
X82162Y-66176D01*
X82218Y-66232D01*
X82275Y-66344D01*
X82275Y-66457D01*
X82218Y-66625D01*
X81543Y-67300D01*
X82275Y-67300D01*
X82781Y-67300D02*
X82781Y-66513D01*
X82781Y-66625D02*
X82837Y-66569D01*
X82949Y-66513D01*
X83118Y-66513D01*
X83231Y-66569D01*
X83287Y-66682D01*
X83287Y-67300D01*
X83287Y-66682D02*
X83343Y-66569D01*
X83456Y-66513D01*
X83624Y-66513D01*
X83737Y-66569D01*
X83793Y-66682D01*
X83793Y-67300D01*
X84356Y-67300D02*
X84356Y-66513D01*
X84356Y-66625D02*
X84412Y-66569D01*
X84524Y-66513D01*
X84693Y-66513D01*
X84805Y-66569D01*
X84862Y-66682D01*
X84862Y-67300D01*
X84862Y-66682D02*
X84918Y-66569D01*
X85030Y-66513D01*
X85199Y-66513D01*
X85312Y-66569D01*
X85368Y-66682D01*
X85368Y-67300D01*
X87674Y-66063D02*
X86661Y-67582D01*
X89192Y-66119D02*
X89305Y-66119D01*
X89417Y-66176D01*
X89474Y-66232D01*
X89530Y-66344D01*
X89586Y-66569D01*
X89586Y-66850D01*
X89530Y-67075D01*
X89474Y-67188D01*
X89417Y-67244D01*
X89305Y-67300D01*
X89192Y-67300D01*
X89080Y-67244D01*
X89024Y-67188D01*
X88967Y-67075D01*
X88911Y-66850D01*
X88911Y-66569D01*
X88967Y-66344D01*
X89024Y-66232D01*
X89080Y-66176D01*
X89192Y-66119D01*
X90092Y-67188D02*
X90149Y-67244D01*
X90092Y-67300D01*
X90036Y-67244D01*
X90092Y-67188D01*
X90092Y-67300D01*
X90880Y-66119D02*
X90992Y-66119D01*
X91105Y-66176D01*
X91161Y-66232D01*
X91217Y-66344D01*
X91273Y-66569D01*
X91273Y-66850D01*
X91217Y-67075D01*
X91161Y-67188D01*
X91105Y-67244D01*
X90992Y-67300D01*
X90880Y-67300D01*
X90767Y-67244D01*
X90711Y-67188D01*
X90655Y-67075D01*
X90598Y-66850D01*
X90598Y-66569D01*
X90655Y-66344D01*
X90711Y-66232D01*
X90767Y-66176D01*
X90880Y-66119D01*
X92286Y-66513D02*
X92286Y-67300D01*
X92005Y-66063D02*
X91723Y-66907D01*
X92455Y-66907D01*
X93129Y-66119D02*
X93242Y-66119D01*
X93354Y-66176D01*
X93411Y-66232D01*
X93467Y-66344D01*
X93523Y-66569D01*
X93523Y-66850D01*
X93467Y-67075D01*
X93411Y-67188D01*
X93354Y-67244D01*
X93242Y-67300D01*
X93129Y-67300D01*
X93017Y-67244D01*
X92961Y-67188D01*
X92904Y-67075D01*
X92848Y-66850D01*
X92848Y-66569D01*
X92904Y-66344D01*
X92961Y-66232D01*
X93017Y-66176D01*
X93129Y-66119D01*
X93973Y-66119D02*
X93973Y-66344D01*
X94423Y-66119D02*
X94423Y-66344D01*
X96167Y-67750D02*
X96110Y-67694D01*
X95998Y-67525D01*
X95942Y-67413D01*
X95885Y-67244D01*
X95829Y-66963D01*
X95829Y-66738D01*
X95885Y-66457D01*
X95942Y-66288D01*
X95998Y-66176D01*
X96110Y-66007D01*
X96167Y-65951D01*
X97179Y-66119D02*
X96616Y-66119D01*
X96560Y-66682D01*
X96616Y-66625D01*
X96729Y-66569D01*
X97010Y-66569D01*
X97123Y-66625D01*
X97179Y-66682D01*
X97235Y-66794D01*
X97235Y-67075D01*
X97179Y-67188D01*
X97123Y-67244D01*
X97010Y-67300D01*
X96729Y-67300D01*
X96616Y-67244D01*
X96560Y-67188D01*
X97685Y-66232D02*
X97741Y-66176D01*
X97854Y-66119D01*
X98135Y-66119D01*
X98248Y-66176D01*
X98304Y-66232D01*
X98360Y-66344D01*
X98360Y-66457D01*
X98304Y-66625D01*
X97629Y-67300D01*
X98360Y-67300D01*
X99766Y-67300D02*
X99766Y-66119D01*
X100272Y-67300D02*
X100272Y-66682D01*
X100216Y-66569D01*
X100104Y-66513D01*
X99935Y-66513D01*
X99822Y-66569D01*
X99766Y-66625D01*
X101003Y-67300D02*
X100891Y-67244D01*
X100835Y-67188D01*
X100778Y-67075D01*
X100778Y-66738D01*
X100835Y-66625D01*
X100891Y-66569D01*
X101003Y-66513D01*
X101172Y-66513D01*
X101285Y-66569D01*
X101341Y-66625D01*
X101397Y-66738D01*
X101397Y-67075D01*
X101341Y-67188D01*
X101285Y-67244D01*
X101172Y-67300D01*
X101003Y-67300D01*
X102072Y-67300D02*
X101960Y-67244D01*
X101903Y-67132D01*
X101903Y-66119D01*
X102972Y-67244D02*
X102859Y-67300D01*
X102634Y-67300D01*
X102522Y-67244D01*
X102466Y-67132D01*
X102466Y-66682D01*
X102522Y-66569D01*
X102634Y-66513D01*
X102859Y-66513D01*
X102972Y-66569D01*
X103028Y-66682D01*
X103028Y-66794D01*
X102466Y-66907D01*
X103478Y-67244D02*
X103591Y-67300D01*
X103816Y-67300D01*
X103928Y-67244D01*
X103984Y-67132D01*
X103984Y-67075D01*
X103928Y-66963D01*
X103816Y-66907D01*
X103647Y-66907D01*
X103534Y-66850D01*
X103478Y-66738D01*
X103478Y-66682D01*
X103534Y-66569D01*
X103647Y-66513D01*
X103816Y-66513D01*
X103928Y-66569D01*
X104378Y-67750D02*
X104434Y-67694D01*
X104547Y-67525D01*
X104603Y-67413D01*
X104659Y-67244D01*
X104715Y-66963D01*
X104715Y-66738D01*
X104659Y-66457D01*
X104603Y-66288D01*
X104547Y-66176D01*
X104434Y-66007D01*
X104378Y-65951D01*
M02*
