G04 (created by PCBNEW (2013-07-07 BZR 4022)-stable) date 09/12/2014 18:13:01*
%MOIN*%
G04 Gerber Fmt 3.4, Leading zero omitted, Abs format*
%FSLAX34Y34*%
G01*
G70*
G90*
G04 APERTURE LIST*
%ADD10C,0.00590551*%
%ADD11C,0.0051*%
%ADD12C,0.005*%
%ADD13C,0.01*%
%ADD14C,0.006*%
%ADD15C,0.012*%
%ADD16C,0.00787402*%
%ADD17C,0.0055*%
%ADD18C,0.008*%
%ADD19C,0.0075*%
G04 APERTURE END LIST*
G54D10*
X91378Y-52716D02*
G75*
G03X91299Y-54684I944J-1023D01*
G74*
G01*
X95590Y-54724D02*
G75*
G03X95590Y-52677I-1023J1023D01*
G74*
G01*
X95728Y-54488D02*
X91200Y-54488D01*
X91200Y-52913D02*
X95728Y-52913D01*
G54D11*
X92039Y-44389D02*
X88589Y-44389D01*
X92039Y-43521D02*
X91839Y-43521D01*
X92039Y-43171D02*
X91839Y-43171D01*
X91839Y-43521D02*
X91839Y-43171D01*
X92039Y-42421D02*
X88589Y-42421D01*
X88589Y-42303D02*
X92039Y-42303D01*
X88589Y-44389D02*
X88589Y-42303D01*
X92039Y-42303D02*
X92039Y-44389D01*
G54D12*
X88645Y-49490D02*
X88645Y-50390D01*
X88645Y-50390D02*
X89295Y-50390D01*
X89995Y-49490D02*
X90645Y-49490D01*
X90645Y-49490D02*
X90645Y-50390D01*
X90645Y-50390D02*
X89995Y-50390D01*
X89295Y-49490D02*
X88645Y-49490D01*
X104807Y-51321D02*
X104807Y-52221D01*
X104807Y-52221D02*
X105457Y-52221D01*
X106157Y-51321D02*
X106807Y-51321D01*
X106807Y-51321D02*
X106807Y-52221D01*
X106807Y-52221D02*
X106157Y-52221D01*
X105457Y-51321D02*
X104807Y-51321D01*
X92325Y-46196D02*
X93225Y-46196D01*
X93225Y-46196D02*
X93225Y-45546D01*
X92325Y-44846D02*
X92325Y-44196D01*
X92325Y-44196D02*
X93225Y-44196D01*
X93225Y-44196D02*
X93225Y-44846D01*
X92325Y-45546D02*
X92325Y-46196D01*
X97890Y-40338D02*
X96990Y-40338D01*
X96990Y-40338D02*
X96990Y-40988D01*
X97890Y-41688D02*
X97890Y-42338D01*
X97890Y-42338D02*
X96990Y-42338D01*
X96990Y-42338D02*
X96990Y-41688D01*
X97890Y-40988D02*
X97890Y-40338D01*
X106118Y-57438D02*
X106118Y-56538D01*
X106118Y-56538D02*
X105468Y-56538D01*
X104768Y-57438D02*
X104118Y-57438D01*
X104118Y-57438D02*
X104118Y-56538D01*
X104118Y-56538D02*
X104768Y-56538D01*
X105468Y-57438D02*
X106118Y-57438D01*
X95711Y-42338D02*
X96611Y-42338D01*
X96611Y-42338D02*
X96611Y-41688D01*
X95711Y-40988D02*
X95711Y-40338D01*
X95711Y-40338D02*
X96611Y-40338D01*
X96611Y-40338D02*
X96611Y-40988D01*
X95711Y-41688D02*
X95711Y-42338D01*
X97751Y-44052D02*
X97751Y-43152D01*
X97751Y-43152D02*
X97101Y-43152D01*
X96401Y-44052D02*
X95751Y-44052D01*
X95751Y-44052D02*
X95751Y-43152D01*
X95751Y-43152D02*
X96401Y-43152D01*
X97101Y-44052D02*
X97751Y-44052D01*
G54D10*
X89133Y-38858D02*
X81141Y-38858D01*
X81141Y-38858D02*
X81141Y-39881D01*
X81141Y-39881D02*
X89133Y-39881D01*
X89133Y-38858D02*
X89133Y-39881D01*
X89133Y-56574D02*
X81141Y-56574D01*
X81141Y-56574D02*
X81141Y-57598D01*
X81141Y-57598D02*
X89133Y-57598D01*
X89133Y-56574D02*
X89133Y-57598D01*
X101220Y-46141D02*
X103188Y-46141D01*
X103188Y-46141D02*
X103188Y-53129D01*
X103188Y-53129D02*
X101220Y-53129D01*
X101220Y-53129D02*
X101220Y-46141D01*
G54D13*
X106799Y-46129D02*
X106799Y-50129D01*
X105799Y-46129D02*
X105799Y-50129D01*
X105799Y-50129D02*
X106799Y-50129D01*
X106799Y-46129D02*
X105799Y-46129D01*
G54D14*
X79200Y-45488D02*
X78200Y-45488D01*
X78200Y-45488D02*
X78200Y-43488D01*
X78200Y-43488D02*
X79200Y-43488D01*
X79200Y-43488D02*
X79200Y-45488D01*
X106799Y-44110D02*
X105799Y-44110D01*
X105799Y-44110D02*
X105799Y-42110D01*
X105799Y-42110D02*
X106799Y-42110D01*
X106799Y-42110D02*
X106799Y-44110D01*
X106799Y-41157D02*
X105799Y-41157D01*
X105799Y-41157D02*
X105799Y-39157D01*
X105799Y-39157D02*
X106799Y-39157D01*
X106799Y-39157D02*
X106799Y-41157D01*
X106799Y-45578D02*
X105799Y-45578D01*
X105799Y-44578D02*
X106799Y-44578D01*
X105799Y-45578D02*
X105799Y-44578D01*
X106799Y-44578D02*
X106799Y-45578D01*
G54D15*
X103393Y-56586D02*
X103393Y-57586D01*
X103393Y-57586D02*
X97393Y-57586D01*
X97393Y-57586D02*
X97393Y-56586D01*
X97393Y-56586D02*
X103393Y-56586D01*
X102393Y-56586D02*
X102393Y-57586D01*
G54D10*
X106397Y-54527D02*
G75*
G03X106397Y-54527I-590J0D01*
G74*
G01*
X104822Y-55275D02*
X104822Y-53779D01*
X104822Y-53779D02*
X106791Y-53779D01*
X106791Y-53779D02*
X106791Y-55275D01*
X106791Y-55275D02*
X104822Y-55275D01*
G54D12*
X101762Y-43229D02*
X103012Y-43229D01*
X103012Y-43229D02*
X103012Y-42529D01*
X103012Y-42529D02*
X101762Y-42529D01*
X101762Y-45029D02*
X103012Y-45029D01*
X103012Y-45029D02*
X103012Y-44329D01*
X103012Y-44329D02*
X101762Y-44329D01*
X99362Y-42429D02*
X101762Y-42429D01*
X101762Y-42429D02*
X101762Y-45129D01*
X101762Y-45129D02*
X98662Y-45129D01*
X98612Y-45129D02*
X98612Y-42429D01*
X98662Y-42429D02*
X99362Y-42429D01*
X101394Y-40846D02*
G75*
G03X101394Y-40846I-1001J0D01*
G74*
G01*
X104249Y-40846D02*
G75*
G03X104249Y-40846I-1001J0D01*
G74*
G01*
G54D13*
X78200Y-53181D02*
X78200Y-49181D01*
X79200Y-53181D02*
X79200Y-49181D01*
X79200Y-49181D02*
X78200Y-49181D01*
X78200Y-53181D02*
X79200Y-53181D01*
G54D16*
X96003Y-51220D02*
X92263Y-51220D01*
X92263Y-51220D02*
X92165Y-51122D01*
X92165Y-51122D02*
X92165Y-47381D01*
X92165Y-47381D02*
X92263Y-47283D01*
X92263Y-47283D02*
X96003Y-47283D01*
X96003Y-47283D02*
X96102Y-47381D01*
X96102Y-47381D02*
X96102Y-51122D01*
X96102Y-51122D02*
X96003Y-51220D01*
X92913Y-50629D02*
G75*
G03X92913Y-50629I-157J0D01*
G74*
G01*
G54D14*
X79200Y-55736D02*
X78200Y-55736D01*
X78200Y-54736D02*
X79200Y-54736D01*
X78200Y-55736D02*
X78200Y-54736D01*
X79200Y-54736D02*
X79200Y-55736D01*
G54D12*
X90645Y-51532D02*
X90645Y-50632D01*
X90645Y-50632D02*
X89995Y-50632D01*
X89295Y-51532D02*
X88645Y-51532D01*
X88645Y-51532D02*
X88645Y-50632D01*
X88645Y-50632D02*
X89295Y-50632D01*
X89995Y-51532D02*
X90645Y-51532D01*
X97641Y-47325D02*
X97641Y-48225D01*
X97641Y-48225D02*
X98291Y-48225D01*
X98991Y-47325D02*
X99641Y-47325D01*
X99641Y-47325D02*
X99641Y-48225D01*
X99641Y-48225D02*
X98991Y-48225D01*
X98291Y-47325D02*
X97641Y-47325D01*
X97641Y-49786D02*
X97641Y-50686D01*
X97641Y-50686D02*
X98291Y-50686D01*
X98991Y-49786D02*
X99641Y-49786D01*
X99641Y-49786D02*
X99641Y-50686D01*
X99641Y-50686D02*
X98991Y-50686D01*
X98291Y-49786D02*
X97641Y-49786D01*
G54D10*
X93224Y-52373D02*
X93487Y-52767D01*
X93487Y-52373D02*
X93224Y-52767D01*
X93843Y-52767D02*
X93618Y-52767D01*
X93730Y-52767D02*
X93730Y-52373D01*
X93693Y-52430D01*
X93655Y-52467D01*
X93618Y-52486D01*
G54D17*
X87691Y-42865D02*
X87691Y-43184D01*
X87710Y-43222D01*
X87729Y-43241D01*
X87766Y-43259D01*
X87842Y-43259D01*
X87879Y-43241D01*
X87898Y-43222D01*
X87917Y-43184D01*
X87917Y-42865D01*
X88085Y-42903D02*
X88104Y-42884D01*
X88142Y-42865D01*
X88236Y-42865D01*
X88273Y-42884D01*
X88292Y-42903D01*
X88311Y-42940D01*
X88311Y-42978D01*
X88292Y-43034D01*
X88067Y-43259D01*
X88311Y-43259D01*
G54D11*
X89254Y-43386D02*
X89480Y-43386D01*
X89367Y-43780D02*
X89367Y-43386D01*
X89742Y-43574D02*
X89799Y-43593D01*
X89817Y-43612D01*
X89836Y-43649D01*
X89836Y-43705D01*
X89817Y-43743D01*
X89799Y-43762D01*
X89761Y-43780D01*
X89611Y-43780D01*
X89611Y-43386D01*
X89742Y-43386D01*
X89780Y-43405D01*
X89799Y-43424D01*
X89817Y-43461D01*
X89817Y-43499D01*
X89799Y-43537D01*
X89780Y-43555D01*
X89742Y-43574D01*
X89611Y-43574D01*
X90174Y-43386D02*
X90099Y-43386D01*
X90061Y-43405D01*
X90042Y-43424D01*
X90005Y-43480D01*
X89986Y-43555D01*
X89986Y-43705D01*
X90005Y-43743D01*
X90024Y-43762D01*
X90061Y-43780D01*
X90136Y-43780D01*
X90174Y-43762D01*
X90193Y-43743D01*
X90211Y-43705D01*
X90211Y-43612D01*
X90193Y-43574D01*
X90174Y-43555D01*
X90136Y-43537D01*
X90061Y-43537D01*
X90024Y-43555D01*
X90005Y-43574D01*
X89986Y-43612D01*
X90549Y-43386D02*
X90474Y-43386D01*
X90436Y-43405D01*
X90418Y-43424D01*
X90380Y-43480D01*
X90361Y-43555D01*
X90361Y-43705D01*
X90380Y-43743D01*
X90399Y-43762D01*
X90436Y-43780D01*
X90511Y-43780D01*
X90549Y-43762D01*
X90568Y-43743D01*
X90587Y-43705D01*
X90587Y-43612D01*
X90568Y-43574D01*
X90549Y-43555D01*
X90511Y-43537D01*
X90436Y-43537D01*
X90399Y-43555D01*
X90380Y-43574D01*
X90361Y-43612D01*
X90962Y-43780D02*
X90737Y-43780D01*
X90849Y-43780D02*
X90849Y-43386D01*
X90812Y-43443D01*
X90774Y-43480D01*
X90737Y-43499D01*
X91112Y-43424D02*
X91131Y-43405D01*
X91168Y-43386D01*
X91262Y-43386D01*
X91299Y-43405D01*
X91318Y-43424D01*
X91337Y-43461D01*
X91337Y-43499D01*
X91318Y-43555D01*
X91093Y-43780D01*
X91337Y-43780D01*
G54D12*
X90255Y-49265D02*
X90155Y-49122D01*
X90083Y-49265D02*
X90083Y-48965D01*
X90197Y-48965D01*
X90226Y-48979D01*
X90240Y-48993D01*
X90255Y-49022D01*
X90255Y-49065D01*
X90240Y-49093D01*
X90226Y-49107D01*
X90197Y-49122D01*
X90083Y-49122D01*
X90426Y-49093D02*
X90397Y-49079D01*
X90383Y-49065D01*
X90369Y-49036D01*
X90369Y-49022D01*
X90383Y-48993D01*
X90397Y-48979D01*
X90426Y-48965D01*
X90483Y-48965D01*
X90512Y-48979D01*
X90526Y-48993D01*
X90540Y-49022D01*
X90540Y-49036D01*
X90526Y-49065D01*
X90512Y-49079D01*
X90483Y-49093D01*
X90426Y-49093D01*
X90397Y-49107D01*
X90383Y-49122D01*
X90369Y-49150D01*
X90369Y-49207D01*
X90383Y-49236D01*
X90397Y-49250D01*
X90426Y-49265D01*
X90483Y-49265D01*
X90512Y-49250D01*
X90526Y-49236D01*
X90540Y-49207D01*
X90540Y-49150D01*
X90526Y-49122D01*
X90512Y-49107D01*
X90483Y-49093D01*
X104871Y-51067D02*
X104856Y-51081D01*
X104814Y-51095D01*
X104785Y-51095D01*
X104742Y-51081D01*
X104714Y-51052D01*
X104699Y-51024D01*
X104685Y-50967D01*
X104685Y-50924D01*
X104699Y-50867D01*
X104714Y-50838D01*
X104742Y-50810D01*
X104785Y-50795D01*
X104814Y-50795D01*
X104856Y-50810D01*
X104871Y-50824D01*
X104971Y-50795D02*
X105171Y-50795D01*
X105042Y-51095D01*
X92868Y-45246D02*
X92882Y-45261D01*
X92897Y-45303D01*
X92897Y-45332D01*
X92882Y-45375D01*
X92854Y-45403D01*
X92825Y-45418D01*
X92768Y-45432D01*
X92725Y-45432D01*
X92668Y-45418D01*
X92639Y-45403D01*
X92611Y-45375D01*
X92597Y-45332D01*
X92597Y-45303D01*
X92611Y-45261D01*
X92625Y-45246D01*
X92597Y-45146D02*
X92597Y-44961D01*
X92711Y-45061D01*
X92711Y-45018D01*
X92725Y-44989D01*
X92739Y-44975D01*
X92768Y-44961D01*
X92839Y-44961D01*
X92868Y-44975D01*
X92882Y-44989D01*
X92897Y-45018D01*
X92897Y-45103D01*
X92882Y-45132D01*
X92868Y-45146D01*
X98429Y-41408D02*
X98443Y-41422D01*
X98458Y-41465D01*
X98458Y-41493D01*
X98443Y-41536D01*
X98415Y-41565D01*
X98386Y-41579D01*
X98329Y-41593D01*
X98286Y-41593D01*
X98229Y-41579D01*
X98200Y-41565D01*
X98172Y-41536D01*
X98158Y-41493D01*
X98158Y-41465D01*
X98172Y-41422D01*
X98186Y-41408D01*
X98258Y-41151D02*
X98458Y-41151D01*
X98143Y-41222D02*
X98358Y-41293D01*
X98358Y-41108D01*
X103887Y-56292D02*
X103787Y-56149D01*
X103715Y-56292D02*
X103715Y-55992D01*
X103829Y-55992D01*
X103858Y-56006D01*
X103872Y-56021D01*
X103887Y-56049D01*
X103887Y-56092D01*
X103872Y-56121D01*
X103858Y-56135D01*
X103829Y-56149D01*
X103715Y-56149D01*
X103987Y-55992D02*
X104187Y-55992D01*
X104058Y-56292D01*
X95475Y-41471D02*
X95175Y-41471D01*
X95175Y-41400D01*
X95190Y-41357D01*
X95218Y-41328D01*
X95247Y-41314D01*
X95304Y-41300D01*
X95347Y-41300D01*
X95404Y-41314D01*
X95432Y-41328D01*
X95461Y-41357D01*
X95475Y-41400D01*
X95475Y-41471D01*
X95475Y-41014D02*
X95475Y-41185D01*
X95475Y-41100D02*
X95175Y-41100D01*
X95218Y-41128D01*
X95247Y-41157D01*
X95261Y-41185D01*
X96042Y-44639D02*
X95942Y-44496D01*
X95871Y-44639D02*
X95871Y-44339D01*
X95985Y-44339D01*
X96013Y-44353D01*
X96028Y-44367D01*
X96042Y-44396D01*
X96042Y-44439D01*
X96028Y-44467D01*
X96013Y-44482D01*
X95985Y-44496D01*
X95871Y-44496D01*
X96328Y-44639D02*
X96156Y-44639D01*
X96242Y-44639D02*
X96242Y-44339D01*
X96213Y-44382D01*
X96185Y-44410D01*
X96156Y-44424D01*
G54D10*
X83661Y-40899D02*
X83642Y-40918D01*
X83586Y-40936D01*
X83548Y-40936D01*
X83492Y-40918D01*
X83455Y-40880D01*
X83436Y-40843D01*
X83417Y-40768D01*
X83417Y-40711D01*
X83436Y-40636D01*
X83455Y-40599D01*
X83492Y-40561D01*
X83548Y-40543D01*
X83586Y-40543D01*
X83642Y-40561D01*
X83661Y-40580D01*
X83905Y-40543D02*
X83980Y-40543D01*
X84017Y-40561D01*
X84055Y-40599D01*
X84073Y-40674D01*
X84073Y-40805D01*
X84055Y-40880D01*
X84017Y-40918D01*
X83980Y-40936D01*
X83905Y-40936D01*
X83867Y-40918D01*
X83830Y-40880D01*
X83811Y-40805D01*
X83811Y-40674D01*
X83830Y-40599D01*
X83867Y-40561D01*
X83905Y-40543D01*
X84430Y-40936D02*
X84242Y-40936D01*
X84242Y-40543D01*
X84636Y-40543D02*
X84711Y-40543D01*
X84748Y-40561D01*
X84786Y-40599D01*
X84805Y-40674D01*
X84805Y-40805D01*
X84786Y-40880D01*
X84748Y-40918D01*
X84711Y-40936D01*
X84636Y-40936D01*
X84598Y-40918D01*
X84561Y-40880D01*
X84542Y-40805D01*
X84542Y-40674D01*
X84561Y-40599D01*
X84598Y-40561D01*
X84636Y-40543D01*
X85198Y-40936D02*
X85067Y-40749D01*
X84973Y-40936D02*
X84973Y-40543D01*
X85123Y-40543D01*
X85161Y-40561D01*
X85179Y-40580D01*
X85198Y-40618D01*
X85198Y-40674D01*
X85179Y-40711D01*
X85161Y-40730D01*
X85123Y-40749D01*
X84973Y-40749D01*
X85273Y-40974D02*
X85573Y-40974D01*
X85873Y-40936D02*
X85648Y-40936D01*
X85761Y-40936D02*
X85761Y-40543D01*
X85723Y-40599D01*
X85686Y-40636D01*
X85648Y-40655D01*
X81791Y-56155D02*
X81772Y-56174D01*
X81716Y-56192D01*
X81678Y-56192D01*
X81622Y-56174D01*
X81585Y-56136D01*
X81566Y-56099D01*
X81547Y-56024D01*
X81547Y-55967D01*
X81566Y-55892D01*
X81585Y-55855D01*
X81622Y-55817D01*
X81678Y-55799D01*
X81716Y-55799D01*
X81772Y-55817D01*
X81791Y-55836D01*
X82035Y-55799D02*
X82110Y-55799D01*
X82147Y-55817D01*
X82185Y-55855D01*
X82203Y-55930D01*
X82203Y-56061D01*
X82185Y-56136D01*
X82147Y-56174D01*
X82110Y-56192D01*
X82035Y-56192D01*
X81997Y-56174D01*
X81960Y-56136D01*
X81941Y-56061D01*
X81941Y-55930D01*
X81960Y-55855D01*
X81997Y-55817D01*
X82035Y-55799D01*
X82559Y-56192D02*
X82372Y-56192D01*
X82372Y-55799D01*
X82766Y-55799D02*
X82841Y-55799D01*
X82878Y-55817D01*
X82916Y-55855D01*
X82934Y-55930D01*
X82934Y-56061D01*
X82916Y-56136D01*
X82878Y-56174D01*
X82841Y-56192D01*
X82766Y-56192D01*
X82728Y-56174D01*
X82691Y-56136D01*
X82672Y-56061D01*
X82672Y-55930D01*
X82691Y-55855D01*
X82728Y-55817D01*
X82766Y-55799D01*
X83328Y-56192D02*
X83197Y-56005D01*
X83103Y-56192D02*
X83103Y-55799D01*
X83253Y-55799D01*
X83291Y-55817D01*
X83309Y-55836D01*
X83328Y-55874D01*
X83328Y-55930D01*
X83309Y-55967D01*
X83291Y-55986D01*
X83253Y-56005D01*
X83103Y-56005D01*
X83403Y-56230D02*
X83703Y-56230D01*
X83778Y-55836D02*
X83797Y-55817D01*
X83834Y-55799D01*
X83928Y-55799D01*
X83966Y-55817D01*
X83984Y-55836D01*
X84003Y-55874D01*
X84003Y-55911D01*
X83984Y-55967D01*
X83759Y-56192D01*
X84003Y-56192D01*
X103840Y-49896D02*
X103446Y-49896D01*
X103446Y-49746D01*
X103465Y-49709D01*
X103484Y-49690D01*
X103521Y-49671D01*
X103577Y-49671D01*
X103615Y-49690D01*
X103634Y-49709D01*
X103652Y-49746D01*
X103652Y-49896D01*
X103615Y-49446D02*
X103596Y-49484D01*
X103577Y-49503D01*
X103540Y-49521D01*
X103521Y-49521D01*
X103484Y-49503D01*
X103465Y-49484D01*
X103446Y-49446D01*
X103446Y-49371D01*
X103465Y-49334D01*
X103484Y-49315D01*
X103521Y-49296D01*
X103540Y-49296D01*
X103577Y-49315D01*
X103596Y-49334D01*
X103615Y-49371D01*
X103615Y-49446D01*
X103634Y-49484D01*
X103652Y-49503D01*
X103690Y-49521D01*
X103765Y-49521D01*
X103802Y-49503D01*
X103821Y-49484D01*
X103840Y-49446D01*
X103840Y-49371D01*
X103821Y-49334D01*
X103802Y-49315D01*
X103765Y-49296D01*
X103690Y-49296D01*
X103652Y-49315D01*
X103634Y-49334D01*
X103615Y-49371D01*
X100445Y-51040D02*
X100464Y-50984D01*
X100482Y-50965D01*
X100520Y-50946D01*
X100576Y-50946D01*
X100613Y-50965D01*
X100632Y-50984D01*
X100651Y-51021D01*
X100651Y-51171D01*
X100257Y-51171D01*
X100257Y-51040D01*
X100276Y-51002D01*
X100295Y-50984D01*
X100332Y-50965D01*
X100370Y-50965D01*
X100407Y-50984D01*
X100426Y-51002D01*
X100445Y-51040D01*
X100445Y-51171D01*
X100651Y-50590D02*
X100651Y-50778D01*
X100257Y-50778D01*
X100257Y-50459D02*
X100576Y-50459D01*
X100613Y-50440D01*
X100632Y-50421D01*
X100651Y-50384D01*
X100651Y-50309D01*
X100632Y-50271D01*
X100613Y-50253D01*
X100576Y-50234D01*
X100257Y-50234D01*
X100445Y-50046D02*
X100445Y-49915D01*
X100651Y-49859D02*
X100651Y-50046D01*
X100257Y-50046D01*
X100257Y-49859D01*
X100257Y-49746D02*
X100257Y-49521D01*
X100651Y-49634D02*
X100257Y-49634D01*
X100257Y-49315D02*
X100257Y-49240D01*
X100276Y-49203D01*
X100314Y-49165D01*
X100389Y-49146D01*
X100520Y-49146D01*
X100595Y-49165D01*
X100632Y-49203D01*
X100651Y-49240D01*
X100651Y-49315D01*
X100632Y-49353D01*
X100595Y-49390D01*
X100520Y-49409D01*
X100389Y-49409D01*
X100314Y-49390D01*
X100276Y-49353D01*
X100257Y-49315D01*
X100257Y-48903D02*
X100257Y-48828D01*
X100276Y-48790D01*
X100314Y-48753D01*
X100389Y-48734D01*
X100520Y-48734D01*
X100595Y-48753D01*
X100632Y-48790D01*
X100651Y-48828D01*
X100651Y-48903D01*
X100632Y-48940D01*
X100595Y-48978D01*
X100520Y-48997D01*
X100389Y-48997D01*
X100314Y-48978D01*
X100276Y-48940D01*
X100257Y-48903D01*
X100257Y-48622D02*
X100257Y-48397D01*
X100651Y-48509D02*
X100257Y-48509D01*
X100651Y-48265D02*
X100257Y-48265D01*
X100445Y-48265D02*
X100445Y-48040D01*
X100651Y-48040D02*
X100257Y-48040D01*
G54D18*
X104633Y-48405D02*
X104614Y-48443D01*
X104614Y-48501D01*
X104633Y-48558D01*
X104671Y-48596D01*
X104709Y-48615D01*
X104785Y-48634D01*
X104842Y-48634D01*
X104919Y-48615D01*
X104957Y-48596D01*
X104995Y-48558D01*
X105014Y-48501D01*
X105014Y-48462D01*
X104995Y-48405D01*
X104976Y-48386D01*
X104842Y-48386D01*
X104842Y-48462D01*
X105014Y-48215D02*
X104614Y-48215D01*
X104614Y-48062D01*
X104633Y-48024D01*
X104652Y-48005D01*
X104690Y-47986D01*
X104747Y-47986D01*
X104785Y-48005D01*
X104804Y-48024D01*
X104823Y-48062D01*
X104823Y-48215D01*
X104995Y-47834D02*
X105014Y-47777D01*
X105014Y-47681D01*
X104995Y-47643D01*
X104976Y-47624D01*
X104938Y-47605D01*
X104899Y-47605D01*
X104861Y-47624D01*
X104842Y-47643D01*
X104823Y-47681D01*
X104804Y-47758D01*
X104785Y-47796D01*
X104766Y-47815D01*
X104728Y-47834D01*
X104690Y-47834D01*
X104652Y-47815D01*
X104633Y-47796D01*
X104614Y-47758D01*
X104614Y-47662D01*
X104633Y-47605D01*
G54D14*
X79865Y-45433D02*
X79565Y-45433D01*
X79779Y-45333D01*
X79565Y-45233D01*
X79865Y-45233D01*
X79565Y-45033D02*
X79565Y-44976D01*
X79579Y-44948D01*
X79608Y-44919D01*
X79665Y-44905D01*
X79765Y-44905D01*
X79822Y-44919D01*
X79851Y-44948D01*
X79865Y-44976D01*
X79865Y-45033D01*
X79851Y-45062D01*
X79822Y-45090D01*
X79765Y-45105D01*
X79665Y-45105D01*
X79608Y-45090D01*
X79579Y-45062D01*
X79565Y-45033D01*
X79565Y-44819D02*
X79565Y-44648D01*
X79865Y-44733D02*
X79565Y-44733D01*
X79565Y-44490D02*
X79565Y-44433D01*
X79579Y-44405D01*
X79608Y-44376D01*
X79665Y-44362D01*
X79765Y-44362D01*
X79822Y-44376D01*
X79851Y-44405D01*
X79865Y-44433D01*
X79865Y-44490D01*
X79851Y-44519D01*
X79822Y-44548D01*
X79765Y-44562D01*
X79665Y-44562D01*
X79608Y-44548D01*
X79579Y-44519D01*
X79565Y-44490D01*
X79865Y-44062D02*
X79722Y-44162D01*
X79865Y-44233D02*
X79565Y-44233D01*
X79565Y-44119D01*
X79579Y-44090D01*
X79594Y-44076D01*
X79622Y-44062D01*
X79665Y-44062D01*
X79694Y-44076D01*
X79708Y-44090D01*
X79722Y-44119D01*
X79722Y-44233D01*
X79594Y-43719D02*
X79579Y-43705D01*
X79565Y-43676D01*
X79565Y-43605D01*
X79579Y-43576D01*
X79594Y-43562D01*
X79622Y-43548D01*
X79651Y-43548D01*
X79694Y-43562D01*
X79865Y-43733D01*
X79865Y-43548D01*
X104998Y-43922D02*
X105013Y-43879D01*
X105013Y-43808D01*
X104998Y-43779D01*
X104984Y-43765D01*
X104956Y-43751D01*
X104927Y-43751D01*
X104898Y-43765D01*
X104884Y-43779D01*
X104870Y-43808D01*
X104856Y-43865D01*
X104841Y-43894D01*
X104827Y-43908D01*
X104798Y-43922D01*
X104770Y-43922D01*
X104741Y-43908D01*
X104727Y-43894D01*
X104713Y-43865D01*
X104713Y-43794D01*
X104727Y-43751D01*
X104713Y-43622D02*
X104956Y-43622D01*
X104984Y-43608D01*
X104998Y-43594D01*
X105013Y-43565D01*
X105013Y-43508D01*
X104998Y-43479D01*
X104984Y-43465D01*
X104956Y-43451D01*
X104713Y-43451D01*
X105013Y-43308D02*
X104713Y-43308D01*
X104713Y-43194D01*
X104727Y-43165D01*
X104741Y-43151D01*
X104770Y-43137D01*
X104813Y-43137D01*
X104841Y-43151D01*
X104856Y-43165D01*
X104870Y-43194D01*
X104870Y-43308D01*
X105013Y-43008D02*
X104713Y-43008D01*
X104713Y-42894D01*
X104727Y-42865D01*
X104741Y-42851D01*
X104770Y-42837D01*
X104813Y-42837D01*
X104841Y-42851D01*
X104856Y-42865D01*
X104870Y-42894D01*
X104870Y-43008D01*
X105013Y-42565D02*
X105013Y-42708D01*
X104713Y-42708D01*
X104870Y-42408D02*
X105013Y-42408D01*
X104713Y-42508D02*
X104870Y-42408D01*
X104713Y-42308D01*
X104993Y-41063D02*
X104693Y-41063D01*
X104907Y-40963D01*
X104693Y-40863D01*
X104993Y-40863D01*
X104693Y-40663D02*
X104693Y-40606D01*
X104707Y-40577D01*
X104736Y-40549D01*
X104793Y-40535D01*
X104893Y-40535D01*
X104950Y-40549D01*
X104979Y-40577D01*
X104993Y-40606D01*
X104993Y-40663D01*
X104979Y-40692D01*
X104950Y-40720D01*
X104893Y-40735D01*
X104793Y-40735D01*
X104736Y-40720D01*
X104707Y-40692D01*
X104693Y-40663D01*
X104693Y-40449D02*
X104693Y-40277D01*
X104993Y-40363D02*
X104693Y-40363D01*
X104693Y-40120D02*
X104693Y-40063D01*
X104707Y-40035D01*
X104736Y-40006D01*
X104793Y-39992D01*
X104893Y-39992D01*
X104950Y-40006D01*
X104979Y-40035D01*
X104993Y-40063D01*
X104993Y-40120D01*
X104979Y-40149D01*
X104950Y-40177D01*
X104893Y-40192D01*
X104793Y-40192D01*
X104736Y-40177D01*
X104707Y-40149D01*
X104693Y-40120D01*
X104993Y-39692D02*
X104850Y-39792D01*
X104993Y-39863D02*
X104693Y-39863D01*
X104693Y-39749D01*
X104707Y-39720D01*
X104722Y-39706D01*
X104750Y-39692D01*
X104793Y-39692D01*
X104822Y-39706D01*
X104836Y-39720D01*
X104850Y-39749D01*
X104850Y-39863D01*
X104993Y-39177D02*
X104993Y-39349D01*
X104993Y-39263D02*
X104693Y-39263D01*
X104736Y-39292D01*
X104764Y-39320D01*
X104779Y-39349D01*
X104756Y-45307D02*
X104742Y-45335D01*
X104742Y-45378D01*
X104756Y-45421D01*
X104785Y-45450D01*
X104814Y-45464D01*
X104871Y-45478D01*
X104914Y-45478D01*
X104971Y-45464D01*
X104999Y-45450D01*
X105028Y-45421D01*
X105042Y-45378D01*
X105042Y-45350D01*
X105028Y-45307D01*
X105014Y-45293D01*
X104914Y-45293D01*
X104914Y-45350D01*
X105042Y-45164D02*
X104742Y-45164D01*
X105042Y-44993D01*
X104742Y-44993D01*
X105042Y-44850D02*
X104742Y-44850D01*
X104742Y-44778D01*
X104756Y-44735D01*
X104785Y-44707D01*
X104814Y-44693D01*
X104871Y-44678D01*
X104914Y-44678D01*
X104971Y-44693D01*
X104999Y-44707D01*
X105028Y-44735D01*
X105042Y-44778D01*
X105042Y-44850D01*
G54D18*
X99938Y-56274D02*
X99988Y-56293D01*
X100071Y-56293D01*
X100105Y-56274D01*
X100121Y-56255D01*
X100138Y-56217D01*
X100138Y-56179D01*
X100121Y-56141D01*
X100105Y-56122D01*
X100071Y-56103D01*
X100005Y-56084D01*
X99971Y-56065D01*
X99955Y-56046D01*
X99938Y-56008D01*
X99938Y-55969D01*
X99955Y-55931D01*
X99971Y-55912D01*
X100005Y-55893D01*
X100088Y-55893D01*
X100138Y-55912D01*
X100255Y-55893D02*
X100338Y-56293D01*
X100405Y-56008D01*
X100471Y-56293D01*
X100555Y-55893D01*
X100688Y-56293D02*
X100688Y-55893D01*
X100771Y-55893D01*
X100821Y-55912D01*
X100855Y-55950D01*
X100871Y-55989D01*
X100888Y-56065D01*
X100888Y-56122D01*
X100871Y-56198D01*
X100855Y-56236D01*
X100821Y-56274D01*
X100771Y-56293D01*
X100688Y-56293D01*
G54D10*
X104037Y-55099D02*
X103849Y-55230D01*
X104037Y-55324D02*
X103643Y-55324D01*
X103643Y-55174D01*
X103662Y-55136D01*
X103681Y-55118D01*
X103718Y-55099D01*
X103774Y-55099D01*
X103812Y-55118D01*
X103831Y-55136D01*
X103849Y-55174D01*
X103849Y-55324D01*
X103831Y-54930D02*
X103831Y-54799D01*
X104037Y-54743D02*
X104037Y-54930D01*
X103643Y-54930D01*
X103643Y-54743D01*
X104018Y-54593D02*
X104037Y-54536D01*
X104037Y-54443D01*
X104018Y-54405D01*
X103999Y-54386D01*
X103962Y-54368D01*
X103924Y-54368D01*
X103887Y-54386D01*
X103868Y-54405D01*
X103849Y-54443D01*
X103831Y-54518D01*
X103812Y-54555D01*
X103793Y-54574D01*
X103756Y-54593D01*
X103718Y-54593D01*
X103681Y-54574D01*
X103662Y-54555D01*
X103643Y-54518D01*
X103643Y-54424D01*
X103662Y-54368D01*
X103831Y-54199D02*
X103831Y-54068D01*
X104037Y-54011D02*
X104037Y-54199D01*
X103643Y-54199D01*
X103643Y-54011D01*
X103643Y-53899D02*
X103643Y-53674D01*
X104037Y-53787D02*
X103643Y-53787D01*
G54D18*
X97964Y-44084D02*
X98369Y-44084D01*
X98416Y-44065D01*
X98440Y-44046D01*
X98464Y-44008D01*
X98464Y-43931D01*
X98440Y-43893D01*
X98416Y-43874D01*
X98369Y-43855D01*
X97964Y-43855D01*
X98464Y-43455D02*
X98464Y-43684D01*
X98464Y-43570D02*
X97964Y-43570D01*
X98036Y-43608D01*
X98083Y-43646D01*
X98107Y-43684D01*
G54D12*
X99197Y-40689D02*
X99211Y-40704D01*
X99225Y-40746D01*
X99225Y-40775D01*
X99211Y-40818D01*
X99182Y-40846D01*
X99154Y-40861D01*
X99097Y-40875D01*
X99054Y-40875D01*
X98997Y-40861D01*
X98968Y-40846D01*
X98940Y-40818D01*
X98925Y-40775D01*
X98925Y-40746D01*
X98940Y-40704D01*
X98954Y-40689D01*
X98954Y-40575D02*
X98940Y-40561D01*
X98925Y-40532D01*
X98925Y-40461D01*
X98940Y-40432D01*
X98954Y-40418D01*
X98982Y-40404D01*
X99011Y-40404D01*
X99054Y-40418D01*
X99225Y-40589D01*
X99225Y-40404D01*
G54D19*
X99379Y-40853D02*
X99607Y-40853D01*
X99493Y-40967D02*
X99493Y-40739D01*
G54D18*
G54D12*
X101849Y-40644D02*
X101835Y-40658D01*
X101792Y-40672D01*
X101763Y-40672D01*
X101721Y-40658D01*
X101692Y-40629D01*
X101678Y-40601D01*
X101663Y-40544D01*
X101663Y-40501D01*
X101678Y-40444D01*
X101692Y-40415D01*
X101721Y-40386D01*
X101763Y-40372D01*
X101792Y-40372D01*
X101835Y-40386D01*
X101849Y-40401D01*
X102135Y-40672D02*
X101963Y-40672D01*
X102049Y-40672D02*
X102049Y-40372D01*
X102021Y-40415D01*
X101992Y-40444D01*
X101963Y-40458D01*
G54D19*
X102233Y-40853D02*
X102462Y-40853D01*
X102348Y-40967D02*
X102348Y-40739D01*
G54D18*
X80132Y-52552D02*
X80132Y-52743D01*
X79732Y-52743D01*
X80113Y-52266D02*
X80132Y-52304D01*
X80132Y-52381D01*
X80113Y-52419D01*
X80075Y-52438D01*
X79922Y-52438D01*
X79884Y-52419D01*
X79865Y-52381D01*
X79865Y-52304D01*
X79884Y-52266D01*
X79922Y-52247D01*
X79960Y-52247D01*
X79999Y-52438D01*
X79865Y-52076D02*
X80132Y-52076D01*
X79903Y-52076D02*
X79884Y-52057D01*
X79865Y-52019D01*
X79865Y-51962D01*
X79884Y-51923D01*
X79922Y-51904D01*
X80132Y-51904D01*
X79865Y-51543D02*
X80189Y-51543D01*
X80227Y-51562D01*
X80246Y-51581D01*
X80265Y-51619D01*
X80265Y-51676D01*
X80246Y-51714D01*
X80113Y-51543D02*
X80132Y-51581D01*
X80132Y-51657D01*
X80113Y-51695D01*
X80094Y-51714D01*
X80056Y-51733D01*
X79941Y-51733D01*
X79903Y-51714D01*
X79884Y-51695D01*
X79865Y-51657D01*
X79865Y-51581D01*
X79884Y-51543D01*
X79865Y-51409D02*
X79865Y-51257D01*
X79732Y-51352D02*
X80075Y-51352D01*
X80113Y-51333D01*
X80132Y-51295D01*
X80132Y-51257D01*
X80132Y-51123D02*
X79732Y-51123D01*
X80132Y-50952D02*
X79922Y-50952D01*
X79884Y-50971D01*
X79865Y-51009D01*
X79865Y-51066D01*
X79884Y-51104D01*
X79903Y-51123D01*
X80170Y-50857D02*
X80170Y-50552D01*
X80113Y-50476D02*
X80132Y-50438D01*
X80132Y-50362D01*
X80113Y-50323D01*
X80075Y-50304D01*
X80056Y-50304D01*
X80018Y-50323D01*
X79999Y-50362D01*
X79999Y-50419D01*
X79979Y-50457D01*
X79941Y-50476D01*
X79922Y-50476D01*
X79884Y-50457D01*
X79865Y-50419D01*
X79865Y-50362D01*
X79884Y-50323D01*
X80113Y-49981D02*
X80132Y-50019D01*
X80132Y-50095D01*
X80113Y-50133D01*
X80075Y-50152D01*
X79922Y-50152D01*
X79884Y-50133D01*
X79865Y-50095D01*
X79865Y-50019D01*
X79884Y-49981D01*
X79922Y-49962D01*
X79960Y-49962D01*
X79999Y-50152D01*
X79865Y-49790D02*
X80132Y-49790D01*
X79903Y-49790D02*
X79884Y-49771D01*
X79865Y-49733D01*
X79865Y-49676D01*
X79884Y-49638D01*
X79922Y-49619D01*
X80132Y-49619D01*
G54D16*
X90367Y-47842D02*
X90367Y-48246D01*
X90390Y-48294D01*
X90414Y-48318D01*
X90462Y-48342D01*
X90557Y-48342D01*
X90605Y-48318D01*
X90628Y-48294D01*
X90652Y-48246D01*
X90652Y-47842D01*
X90843Y-47842D02*
X91152Y-47842D01*
X90986Y-48032D01*
X91057Y-48032D01*
X91105Y-48056D01*
X91128Y-48080D01*
X91152Y-48127D01*
X91152Y-48246D01*
X91128Y-48294D01*
X91105Y-48318D01*
X91057Y-48342D01*
X90914Y-48342D01*
X90867Y-48318D01*
X90843Y-48294D01*
G54D14*
X79599Y-55405D02*
X79585Y-55434D01*
X79585Y-55477D01*
X79599Y-55520D01*
X79628Y-55548D01*
X79656Y-55562D01*
X79713Y-55577D01*
X79756Y-55577D01*
X79813Y-55562D01*
X79842Y-55548D01*
X79870Y-55520D01*
X79885Y-55477D01*
X79885Y-55448D01*
X79870Y-55405D01*
X79856Y-55391D01*
X79756Y-55391D01*
X79756Y-55448D01*
X79885Y-55262D02*
X79585Y-55262D01*
X79885Y-55091D01*
X79585Y-55091D01*
X79885Y-54948D02*
X79585Y-54948D01*
X79585Y-54877D01*
X79599Y-54834D01*
X79628Y-54805D01*
X79656Y-54791D01*
X79713Y-54777D01*
X79756Y-54777D01*
X79813Y-54791D01*
X79842Y-54805D01*
X79870Y-54834D01*
X79885Y-54877D01*
X79885Y-54948D01*
G54D12*
X90112Y-51992D02*
X90097Y-52006D01*
X90055Y-52021D01*
X90026Y-52021D01*
X89983Y-52006D01*
X89955Y-51978D01*
X89940Y-51949D01*
X89926Y-51892D01*
X89926Y-51849D01*
X89940Y-51792D01*
X89955Y-51763D01*
X89983Y-51735D01*
X90026Y-51721D01*
X90055Y-51721D01*
X90097Y-51735D01*
X90112Y-51749D01*
X90397Y-52021D02*
X90226Y-52021D01*
X90312Y-52021D02*
X90312Y-51721D01*
X90283Y-51763D01*
X90255Y-51792D01*
X90226Y-51806D01*
X90683Y-52021D02*
X90512Y-52021D01*
X90597Y-52021D02*
X90597Y-51721D01*
X90569Y-51763D01*
X90540Y-51792D01*
X90512Y-51806D01*
X97622Y-47130D02*
X97607Y-47144D01*
X97564Y-47158D01*
X97536Y-47158D01*
X97493Y-47144D01*
X97464Y-47115D01*
X97450Y-47087D01*
X97436Y-47030D01*
X97436Y-46987D01*
X97450Y-46930D01*
X97464Y-46901D01*
X97493Y-46873D01*
X97536Y-46858D01*
X97564Y-46858D01*
X97607Y-46873D01*
X97622Y-46887D01*
X97907Y-47158D02*
X97736Y-47158D01*
X97822Y-47158D02*
X97822Y-46858D01*
X97793Y-46901D01*
X97764Y-46930D01*
X97736Y-46944D01*
X98093Y-46858D02*
X98122Y-46858D01*
X98150Y-46873D01*
X98164Y-46887D01*
X98179Y-46915D01*
X98193Y-46973D01*
X98193Y-47044D01*
X98179Y-47101D01*
X98164Y-47130D01*
X98150Y-47144D01*
X98122Y-47158D01*
X98093Y-47158D01*
X98064Y-47144D01*
X98050Y-47130D01*
X98036Y-47101D01*
X98022Y-47044D01*
X98022Y-46973D01*
X98036Y-46915D01*
X98050Y-46887D01*
X98064Y-46873D01*
X98093Y-46858D01*
X97966Y-51185D02*
X97952Y-51199D01*
X97909Y-51213D01*
X97880Y-51213D01*
X97838Y-51199D01*
X97809Y-51171D01*
X97795Y-51142D01*
X97780Y-51085D01*
X97780Y-51042D01*
X97795Y-50985D01*
X97809Y-50956D01*
X97838Y-50928D01*
X97880Y-50913D01*
X97909Y-50913D01*
X97952Y-50928D01*
X97966Y-50942D01*
X98252Y-51213D02*
X98080Y-51213D01*
X98166Y-51213D02*
X98166Y-50913D01*
X98138Y-50956D01*
X98109Y-50985D01*
X98080Y-50999D01*
X98352Y-50913D02*
X98538Y-50913D01*
X98438Y-51028D01*
X98480Y-51028D01*
X98509Y-51042D01*
X98523Y-51056D01*
X98538Y-51085D01*
X98538Y-51156D01*
X98523Y-51185D01*
X98509Y-51199D01*
X98480Y-51213D01*
X98395Y-51213D01*
X98366Y-51199D01*
X98352Y-51185D01*
M02*
