G04 (created by PCBNEW (2013-07-07 BZR 4022)-stable) date 09/12/2014 18:13:01*
%MOIN*%
G04 Gerber Fmt 3.4, Leading zero omitted, Abs format*
%FSLAX34Y34*%
G01*
G70*
G90*
G04 APERTURE LIST*
%ADD10C,0.00590551*%
%ADD11C,0.005*%
G04 APERTURE END LIST*
G54D10*
G54D11*
X89550Y-52681D02*
X90450Y-52681D01*
X90450Y-52681D02*
X90450Y-53331D01*
X89550Y-54031D02*
X89550Y-54681D01*
X89550Y-54681D02*
X90450Y-54681D01*
X90450Y-54681D02*
X90450Y-54031D01*
X89550Y-53331D02*
X89550Y-52681D01*
X90902Y-43814D02*
X90002Y-43814D01*
X90002Y-43814D02*
X90002Y-43164D01*
X90902Y-42464D02*
X90902Y-41814D01*
X90902Y-41814D02*
X90002Y-41814D01*
X90002Y-41814D02*
X90002Y-42464D01*
X90902Y-43164D02*
X90902Y-43814D01*
X89524Y-43814D02*
X88624Y-43814D01*
X88624Y-43814D02*
X88624Y-43164D01*
X89524Y-42464D02*
X89524Y-41814D01*
X89524Y-41814D02*
X88624Y-41814D01*
X88624Y-41814D02*
X88624Y-42464D01*
X89524Y-43164D02*
X89524Y-43814D01*
X96498Y-52681D02*
X97398Y-52681D01*
X97398Y-52681D02*
X97398Y-53331D01*
X96498Y-54031D02*
X96498Y-54681D01*
X96498Y-54681D02*
X97398Y-54681D01*
X97398Y-54681D02*
X97398Y-54031D01*
X96498Y-53331D02*
X96498Y-52681D01*
X95343Y-50433D02*
X94443Y-50433D01*
X94443Y-50433D02*
X94443Y-49783D01*
X95343Y-49083D02*
X95343Y-48433D01*
X95343Y-48433D02*
X94443Y-48433D01*
X94443Y-48433D02*
X94443Y-49083D01*
X95343Y-49783D02*
X95343Y-50433D01*
X92280Y-43814D02*
X91380Y-43814D01*
X91380Y-43814D02*
X91380Y-43164D01*
X92280Y-42464D02*
X92280Y-41814D01*
X92280Y-41814D02*
X91380Y-41814D01*
X91380Y-41814D02*
X91380Y-42464D01*
X92280Y-43164D02*
X92280Y-43814D01*
X89325Y-53650D02*
X89339Y-53636D01*
X89353Y-53593D01*
X89353Y-53565D01*
X89339Y-53522D01*
X89310Y-53493D01*
X89282Y-53479D01*
X89225Y-53465D01*
X89182Y-53465D01*
X89125Y-53479D01*
X89096Y-53493D01*
X89067Y-53522D01*
X89053Y-53565D01*
X89053Y-53593D01*
X89067Y-53636D01*
X89082Y-53650D01*
X89353Y-53793D02*
X89353Y-53850D01*
X89339Y-53879D01*
X89325Y-53893D01*
X89282Y-53922D01*
X89225Y-53936D01*
X89110Y-53936D01*
X89082Y-53922D01*
X89067Y-53907D01*
X89053Y-53879D01*
X89053Y-53822D01*
X89067Y-53793D01*
X89082Y-53779D01*
X89110Y-53765D01*
X89182Y-53765D01*
X89210Y-53779D01*
X89225Y-53793D01*
X89239Y-53822D01*
X89239Y-53879D01*
X89225Y-53907D01*
X89210Y-53922D01*
X89182Y-53936D01*
X90404Y-41392D02*
X90418Y-41406D01*
X90461Y-41420D01*
X90490Y-41420D01*
X90532Y-41406D01*
X90561Y-41377D01*
X90575Y-41349D01*
X90590Y-41292D01*
X90590Y-41249D01*
X90575Y-41192D01*
X90561Y-41163D01*
X90532Y-41134D01*
X90490Y-41120D01*
X90461Y-41120D01*
X90418Y-41134D01*
X90404Y-41149D01*
X90147Y-41120D02*
X90204Y-41120D01*
X90232Y-41134D01*
X90247Y-41149D01*
X90275Y-41192D01*
X90290Y-41249D01*
X90290Y-41363D01*
X90275Y-41392D01*
X90261Y-41406D01*
X90232Y-41420D01*
X90175Y-41420D01*
X90147Y-41406D01*
X90132Y-41392D01*
X90118Y-41363D01*
X90118Y-41292D01*
X90132Y-41263D01*
X90147Y-41249D01*
X90175Y-41234D01*
X90232Y-41234D01*
X90261Y-41249D01*
X90275Y-41263D01*
X90290Y-41292D01*
X88996Y-41411D02*
X89011Y-41426D01*
X89053Y-41440D01*
X89082Y-41440D01*
X89125Y-41426D01*
X89153Y-41397D01*
X89168Y-41368D01*
X89182Y-41311D01*
X89182Y-41268D01*
X89168Y-41211D01*
X89153Y-41183D01*
X89125Y-41154D01*
X89082Y-41140D01*
X89053Y-41140D01*
X89011Y-41154D01*
X88996Y-41168D01*
X88725Y-41140D02*
X88868Y-41140D01*
X88882Y-41283D01*
X88868Y-41268D01*
X88839Y-41254D01*
X88768Y-41254D01*
X88739Y-41268D01*
X88725Y-41283D01*
X88711Y-41311D01*
X88711Y-41383D01*
X88725Y-41411D01*
X88739Y-41426D01*
X88768Y-41440D01*
X88839Y-41440D01*
X88868Y-41426D01*
X88882Y-41411D01*
X97957Y-53621D02*
X97971Y-53606D01*
X97985Y-53564D01*
X97985Y-53535D01*
X97971Y-53492D01*
X97942Y-53464D01*
X97914Y-53449D01*
X97857Y-53435D01*
X97814Y-53435D01*
X97757Y-53449D01*
X97728Y-53464D01*
X97699Y-53492D01*
X97685Y-53535D01*
X97685Y-53564D01*
X97699Y-53606D01*
X97714Y-53621D01*
X97814Y-53792D02*
X97799Y-53764D01*
X97785Y-53749D01*
X97757Y-53735D01*
X97742Y-53735D01*
X97714Y-53749D01*
X97699Y-53764D01*
X97685Y-53792D01*
X97685Y-53849D01*
X97699Y-53878D01*
X97714Y-53892D01*
X97742Y-53906D01*
X97757Y-53906D01*
X97785Y-53892D01*
X97799Y-53878D01*
X97814Y-53849D01*
X97814Y-53792D01*
X97828Y-53764D01*
X97842Y-53749D01*
X97871Y-53735D01*
X97928Y-53735D01*
X97957Y-53749D01*
X97971Y-53764D01*
X97985Y-53792D01*
X97985Y-53849D01*
X97971Y-53878D01*
X97957Y-53892D01*
X97928Y-53906D01*
X97871Y-53906D01*
X97842Y-53892D01*
X97828Y-53878D01*
X97814Y-53849D01*
X94986Y-49240D02*
X95000Y-49225D01*
X95015Y-49183D01*
X95015Y-49154D01*
X95000Y-49111D01*
X94972Y-49083D01*
X94943Y-49068D01*
X94886Y-49054D01*
X94843Y-49054D01*
X94786Y-49068D01*
X94757Y-49083D01*
X94729Y-49111D01*
X94715Y-49154D01*
X94715Y-49183D01*
X94729Y-49225D01*
X94743Y-49240D01*
X95015Y-49525D02*
X95015Y-49354D01*
X95015Y-49440D02*
X94715Y-49440D01*
X94757Y-49411D01*
X94786Y-49383D01*
X94800Y-49354D01*
X94743Y-49640D02*
X94729Y-49654D01*
X94715Y-49683D01*
X94715Y-49754D01*
X94729Y-49783D01*
X94743Y-49797D01*
X94772Y-49811D01*
X94800Y-49811D01*
X94843Y-49797D01*
X95015Y-49625D01*
X95015Y-49811D01*
X92121Y-41411D02*
X92136Y-41426D01*
X92179Y-41440D01*
X92207Y-41440D01*
X92250Y-41426D01*
X92279Y-41397D01*
X92293Y-41368D01*
X92307Y-41311D01*
X92307Y-41268D01*
X92293Y-41211D01*
X92279Y-41183D01*
X92250Y-41154D01*
X92207Y-41140D01*
X92179Y-41140D01*
X92136Y-41154D01*
X92121Y-41168D01*
X91836Y-41440D02*
X92007Y-41440D01*
X91921Y-41440D02*
X91921Y-41140D01*
X91950Y-41183D01*
X91979Y-41211D01*
X92007Y-41226D01*
X91579Y-41240D02*
X91579Y-41440D01*
X91650Y-41126D02*
X91721Y-41340D01*
X91536Y-41340D01*
M02*
