G04 (created by PCBNEW (2013-07-07 BZR 4022)-stable) date 09/12/2014 18:13:01*
%MOIN*%
G04 Gerber Fmt 3.4, Leading zero omitted, Abs format*
%FSLAX34Y34*%
G01*
G70*
G90*
G04 APERTURE LIST*
%ADD10C,0.00590551*%
%ADD11C,0.0606299*%
%ADD12R,0.08X0.06*%
%ADD13C,0.06*%
%ADD14R,0.06X0.06*%
%ADD15R,0.055X0.055*%
%ADD16C,0.055*%
%ADD17C,0.23622*%
G04 APERTURE END LIST*
G54D10*
G54D11*
X92503Y-53700D03*
X94425Y-53700D03*
G54D12*
X90000Y-53031D03*
X90000Y-54331D03*
X90452Y-43464D03*
X90452Y-42164D03*
X89074Y-43464D03*
X89074Y-42164D03*
X96948Y-53031D03*
X96948Y-54331D03*
G54D10*
G36*
X88945Y-39070D02*
X88945Y-39670D01*
X88345Y-39670D01*
X88345Y-39070D01*
X88945Y-39070D01*
X88945Y-39070D01*
G37*
G54D13*
X87645Y-39370D03*
X86645Y-39370D03*
X85645Y-39370D03*
X84645Y-39370D03*
X83645Y-39370D03*
X82645Y-39370D03*
X81645Y-39370D03*
G54D10*
G36*
X88945Y-56786D02*
X88945Y-57386D01*
X88345Y-57386D01*
X88345Y-56786D01*
X88945Y-56786D01*
X88945Y-56786D01*
G37*
G54D13*
X87645Y-57086D03*
X86645Y-57086D03*
X85645Y-57086D03*
X84645Y-57086D03*
X83645Y-57086D03*
X82645Y-57086D03*
X81645Y-57086D03*
G54D10*
G36*
X101404Y-46306D02*
X102004Y-46306D01*
X102004Y-46906D01*
X101404Y-46906D01*
X101404Y-46306D01*
X101404Y-46306D01*
G37*
G54D13*
X102704Y-46606D03*
X101704Y-47606D03*
X102704Y-47606D03*
X101704Y-48606D03*
X102704Y-48606D03*
X101704Y-49566D03*
X102704Y-49606D03*
X101704Y-50606D03*
X102716Y-50606D03*
X101704Y-51606D03*
X102736Y-51606D03*
X101704Y-52606D03*
X102704Y-52606D03*
G54D14*
X106299Y-49629D03*
G54D13*
X106299Y-48629D03*
X106299Y-47629D03*
X106299Y-46629D03*
G54D14*
X78700Y-44988D03*
G54D13*
X78700Y-43988D03*
G54D14*
X106299Y-43610D03*
G54D13*
X106299Y-42610D03*
G54D14*
X106299Y-40657D03*
G54D13*
X106299Y-39657D03*
G54D14*
X106299Y-45078D03*
X102893Y-57086D03*
G54D13*
X101893Y-57086D03*
X100893Y-57086D03*
X99893Y-57086D03*
X98893Y-57086D03*
X97893Y-57086D03*
X104921Y-55807D03*
X104921Y-53248D03*
X106692Y-55807D03*
X106692Y-53248D03*
G54D15*
X99893Y-40846D03*
G54D16*
X100893Y-40846D03*
G54D15*
X102748Y-40846D03*
G54D16*
X103748Y-40846D03*
G54D14*
X78700Y-49681D03*
G54D13*
X78700Y-50681D03*
X78700Y-51681D03*
X78700Y-52681D03*
G54D17*
X83897Y-48307D03*
G54D14*
X78700Y-55236D03*
G54D12*
X94893Y-50083D03*
X94893Y-48783D03*
X91830Y-43464D03*
X91830Y-42164D03*
M02*
